<?xml version="1.0" encoding="UTF-8"?>
<svg xmlns="http://www.w3.org/2000/svg" viewBox="106 118 989 962">
  <path d="M559.0,1078.8C546.6,1078.4 531.5,1077.3 525.5,1076.4C519.5,1075.5 510.6,1074.4 505.9,1074.0C501.1,1073.6 493.9,1072.7 489.9,1072.1C485.8,1071.4 478.0,1070.2 472.5,1069.4C467.0,1068.6 459.6,1067.2 456.0,1066.3C452.4,1065.4 447.7,1064.4 445.5,1064.0C440.8,1063.1 434.1,1061.4 425.1,1058.8C421.6,1057.8 417.9,1057.0 416.8,1057.0C415.8,1057.0 412.8,1056.4 410.2,1055.6C402.6,1053.4 385.2,1049.0 376.2,1047.0C373.9,1046.5 371.1,1045.6 370.1,1045.0C369.0,1044.5 367.2,1044.0 366.0,1044.0C364.8,1044.0 361.8,1043.1 359.2,1042.1C356.6,1041.1 351.1,1039.2 347.0,1037.9C342.9,1036.7 339.1,1035.4 338.5,1035.0C337.2,1034.2 327.4,1030.5 322.8,1029.0C320.7,1028.4 318.8,1027.4 318.5,1026.9C318.1,1026.4 317.2,1026.0 316.4,1026.0C315.0,1026.0 311.1,1024.5 302.5,1020.5C295.5,1017.3 270.2,1004.6 266.5,1002.4C264.3,1001.1 261.8,999.7 261.0,999.3C260.2,998.9 256.0,996.4 251.8,993.8C247.5,991.2 243.6,989.0 243.1,989.0C242.6,989.0 242.0,988.7 241.8,988.2C241.3,987.0 234.2,982.0 233.1,982.0C232.5,982.0 232.0,981.6 232.0,981.2C232.0,980.7 230.4,979.5 228.5,978.4C226.6,977.4 225.0,976.2 225.0,975.8C225.0,975.3 224.3,975.0 223.5,975.0C222.7,975.0 222.0,974.6 222.0,974.1C222.0,973.6 219.9,971.8 217.2,970.1C214.6,968.5 211.4,966.0 210.0,964.8C208.6,963.5 205.4,960.9 203.0,959.0C196.7,954.2 196.4,953.9 192.5,950.5C190.6,948.9 188.3,946.9 187.5,946.2C177.8,937.9 166.3,927.5 161.2,922.3C157.7,918.9 154.6,916.0 154.2,916.0C153.8,915.9 152.6,914.8 151.5,913.4C150.4,912.0 146.0,907.3 141.7,902.9C137.4,898.5 132.0,892.3 129.7,889.1C127.4,886.0 124.5,882.4 123.4,881.2C122.3,880.0 120.7,877.7 120.0,876.2C119.2,874.7 118.1,872.8 117.4,872.0C116.8,871.2 115.4,868.7 114.3,866.5C107.6,853.2 105.5,843.3 107.1,832.2C108.1,825.5 112.7,813.0 114.2,813.0C114.7,813.0 115.0,812.5 115.0,811.9C115.0,809.2 130.0,793.0 132.4,793.0C132.9,793.0 134.1,792.4 134.9,791.6C136.9,789.8 150.6,786.0 154.9,786.0C159.8,786.0 180.3,791.1 187.5,794.1C198.1,798.5 207.0,803.4 207.8,805.2C208.0,805.7 208.6,806.0 209.2,806.0C210.2,806.0 232.0,827.2 232.0,828.2C232.0,828.5 233.2,830.1 234.8,831.8C236.3,833.4 241.1,839.0 245.5,844.2C249.9,849.5 254.7,854.3 256.2,854.9C257.7,855.6 259.9,857.3 261.2,858.7C263.1,860.9 287.0,885.8 292.1,890.9C297.3,896.1 309.2,902.0 314.6,902.0C321.5,902.0 327.7,897.4 328.5,891.6C329.4,885.7 326.2,874.1 322.7,870.2C321.8,869.2 321.0,868.0 321.0,867.6C321.0,866.0 311.8,855.0 302.8,845.6C299.6,842.4 297.0,839.6 297.0,839.6C297.0,839.5 290.9,833.4 283.5,826.0C276.1,818.6 270.0,811.9 270.0,811.2C270.0,810.6 269.6,810.0 269.0,810.0C268.5,810.0 267.4,808.8 266.5,807.2C265.6,805.7 264.1,803.1 263.0,801.5C259.1,795.3 254.1,784.2 251.9,776.5C247.0,759.8 250.0,733.1 258.0,722.5C261.0,718.4 270.2,710.0 271.6,710.0C272.4,710.0 273.0,709.7 273.0,709.2C273.0,707.0 303.1,697.0 309.8,697.0C315.3,697.0 327.3,701.7 335.5,707.0C337.1,708.1 339.2,709.3 340.0,709.8C344.4,712.1 349.0,715.3 349.0,716.1C349.0,716.6 349.6,717.0 350.4,717.0C351.2,717.0 352.0,717.7 352.4,718.5C352.7,719.3 353.4,720.0 353.9,720.0C355.3,720.0 386.5,751.1 387.3,753.2C387.7,754.2 388.4,755.0 389.0,755.0C389.5,755.0 390.0,755.6 390.0,756.4C390.0,757.2 390.3,758.0 390.8,758.2C391.8,758.6 400.1,769.7 403.0,774.5C404.3,776.7 405.8,778.6 406.2,778.8C406.6,779.0 407.0,779.6 407.0,780.1C407.0,780.6 408.7,783.4 410.7,786.3C412.7,789.1 415.4,793.1 416.8,795.0C418.1,796.9 419.4,798.7 419.8,799.0C420.2,799.3 420.9,800.2 421.5,801.1C422.5,802.8 426.9,809.2 433.9,819.4C436.2,822.6 438.0,825.6 438.0,826.1C438.0,826.6 438.4,827.0 438.9,827.0C439.3,827.0 440.9,828.7 442.2,830.8C443.6,832.8 446.6,836.5 448.9,839.0C457.1,847.8 463.7,854.5 467.1,857.5C474.8,864.3 478.8,867.6 481.9,870.0C483.7,871.4 485.8,873.1 486.5,873.8C487.3,874.4 488.3,875.0 488.9,875.0C489.5,875.0 490.0,875.4 490.0,875.8C490.0,876.2 491.5,877.4 493.2,878.5C495.0,879.5 496.7,880.6 497.0,881.0C498.4,882.6 519.4,891.9 526.0,893.8C544.9,899.0 574.9,902.5 601.0,902.5C626.5,902.5 656.1,898.9 675.6,893.5C682.8,891.4 698.7,884.7 700.0,883.1C700.3,882.7 702.6,881.3 705.2,880.0C707.9,878.6 710.0,877.2 710.0,876.8C710.0,876.5 711.6,875.2 713.6,873.9C715.6,872.7 718.3,870.8 719.6,869.6C720.8,868.4 723.4,866.4 725.2,865.0C730.2,861.2 755.0,836.5 755.0,835.3C755.0,834.7 755.7,834.0 756.5,833.6C757.3,833.3 758.0,832.6 758.0,832.0C758.0,831.5 758.7,830.2 759.6,829.2C762.4,826.2 775.0,808.1 775.0,807.1C775.0,806.6 775.3,806.0 775.8,805.8C777.0,805.3 782.0,798.2 782.0,797.1C782.0,796.5 782.4,796.0 782.9,796.0C783.4,796.0 784.7,794.5 785.8,792.8C786.9,791.0 789.7,786.9 791.9,783.7C794.2,780.6 796.0,777.8 796.0,777.5C796.0,775.9 816.4,749.1 818.7,747.7C819.4,747.3 820.0,746.5 820.0,745.9C820.0,745.4 822.6,742.6 825.7,739.7C828.9,736.8 834.7,731.2 838.7,727.2C842.7,723.3 846.2,720.0 846.5,720.0C846.8,720.0 847.8,719.2 848.8,718.2C853.2,714.2 855.4,712.7 872.0,703.3C877.7,700.1 887.3,697.0 891.4,697.0C896.4,697.1 914.8,702.4 920.9,705.7C922.4,706.4 923.8,707.0 924.2,707.0C925.7,707.0 934.7,713.5 937.8,716.8C942.8,722.0 945.9,727.4 948.6,735.6C950.7,742.0 951.0,745.0 951.0,756.8C951.0,774.5 949.1,781.3 939.0,799.5C937.2,802.8 935.3,805.6 934.8,805.8C934.4,806.0 934.0,806.6 934.0,807.2C934.0,808.7 929.0,814.2 908.0,835.5C897.7,846.0 889.0,855.3 888.7,856.2C888.3,857.2 887.6,858.0 887.1,858.0C885.8,858.0 877.5,870.9 874.5,877.6C871.3,884.7 871.1,892.7 874.0,895.9C876.9,899.3 882.5,902.0 886.6,902.0C890.3,902.0 903.6,896.0 905.6,893.4C906.2,892.6 907.0,892.0 907.4,892.0C907.8,892.0 909.3,890.7 910.8,889.1C927.1,872.0 943.3,855.9 946.7,853.5C949.1,851.8 951.0,850.1 951.0,849.7C951.0,849.3 952.2,847.7 953.8,846.2C955.3,844.7 959.2,840.1 962.4,836.0C965.7,831.9 969.8,827.0 971.7,825.3C973.5,823.5 975.0,821.8 975.0,821.6C975.0,820.7 985.9,810.2 987.4,809.7C988.3,809.3 989.0,808.7 989.0,808.2C989.0,807.2 999.4,800.5 1005.0,797.8C1013.7,793.7 1024.2,790.0 1030.1,789.0C1032.7,788.5 1036.5,787.7 1038.6,787.1C1040.8,786.5 1044.1,786.0 1046.0,786.0C1050.6,786.1 1061.5,789.1 1066.5,791.7C1070.9,794.0 1081.0,803.3 1081.0,804.9C1081.0,805.5 1081.4,806.0 1081.8,806.0C1082.3,806.0 1083.5,807.6 1084.6,809.5C1085.6,811.4 1086.8,813.0 1087.2,813.0C1087.7,813.0 1088.0,813.6 1088.0,814.2C1088.0,814.9 1088.9,817.3 1089.9,819.5C1096.6,833.6 1096.1,846.8 1088.2,863.0C1084.3,871.0 1080.0,878.3 1078.8,878.8C1078.3,879.0 1078.0,879.8 1078.0,880.5C1078.0,881.2 1077.7,882.0 1077.2,882.2C1076.8,882.4 1075.2,884.3 1073.5,886.5C1071.9,888.7 1069.2,892.1 1067.5,893.9C1063.0,899.1 1032.0,930.0 1027.3,934.0C1016.5,943.4 1010.4,948.7 1007.8,951.2C1006.2,952.8 1004.5,954.0 1004.0,954.0C1003.5,954.0 1002.7,954.6 1002.3,955.3C1001.9,956.0 998.8,958.6 995.5,961.1C992.2,963.5 989.1,966.1 988.7,966.7C988.3,967.4 987.2,968.0 986.5,968.0C985.7,968.0 985.0,968.4 985.0,968.8C985.0,969.8 973.3,978.0 971.9,978.0C971.4,978.0 971.0,978.4 971.0,978.8C971.0,979.8 963.3,985.0 961.9,985.0C961.4,985.0 961.0,985.4 961.0,985.8C961.0,986.2 956.9,989.0 952.0,992.0C947.0,995.0 941.7,998.3 940.2,999.2C933.4,1003.5 916.6,1012.1 907.0,1016.3C903.4,1017.9 899.6,1019.7 898.5,1020.3C894.8,1022.2 893.5,1022.8 889.0,1024.5C886.5,1025.5 882.6,1027.1 880.3,1028.1C877.9,1029.2 875.6,1030.0 875.0,1030.0C874.5,1030.0 872.6,1030.6 870.8,1031.4C861.8,1035.2 852.9,1038.5 847.5,1040.0C845.9,1040.5 842.2,1041.6 839.5,1042.5C836.8,1043.4 832.2,1044.7 829.5,1045.5C826.8,1046.3 822.1,1047.6 819.1,1048.4C816.2,1049.3 812.9,1050.0 811.9,1050.0C810.9,1050.0 807.7,1050.8 804.8,1051.9C801.9,1052.9 795.9,1054.5 791.5,1055.4C787.1,1056.4 780.1,1058.0 776.0,1059.0C771.9,1060.0 765.6,1061.5 762.0,1062.4C758.4,1063.2 751.7,1064.8 747.0,1065.9C736.5,1068.3 723.7,1070.4 706.0,1072.5C698.6,1073.4 688.2,1074.8 683.0,1075.6C671.6,1077.4 619.9,1079.9 597.5,1079.8C588.7,1079.7 571.4,1079.3 559.0,1078.8Z M577.5,852.4C574.2,851.7 570.0,851.1 568.2,851.0C559.3,850.9 541.4,844.6 522.6,835.0C517.2,832.3 512.3,830.0 511.8,830.0C510.5,830.0 500.2,825.0 499.8,824.2C499.4,823.3 490.2,817.0 489.2,817.0C488.8,817.0 486.8,815.0 484.8,812.7C482.8,810.4 479.3,806.4 477.0,803.9C474.8,801.4 473.0,798.8 473.0,798.2C473.0,797.6 472.4,796.7 471.6,796.3C469.9,795.3 463.1,786.7 460.5,782.2C459.4,780.5 458.3,779.0 458.0,779.0C457.7,779.0 456.6,777.4 455.6,775.5C454.5,773.6 453.3,772.0 452.8,772.0C452.4,772.0 452.0,771.3 452.0,770.5C452.0,769.7 451.2,768.2 450.2,767.2C447.6,764.4 445.0,761.0 445.0,760.5C445.0,760.2 442.9,757.0 440.2,753.3C435.7,746.8 430.0,735.9 426.7,727.5C425.9,725.3 423.8,720.1 422.0,716.0C420.2,711.9 418.1,706.2 417.3,703.5C411.3,682.3 410.1,677.8 407.5,666.5C401.9,641.7 398.3,612.1 399.3,598.0C399.6,593.3 400.6,580.7 401.4,570.0C402.2,559.3 403.2,545.3 403.5,539.0C404.5,518.8 407.6,499.4 412.7,480.0C417.4,462.3 420.8,453.2 423.6,451.0C424.3,450.3 425.0,449.0 425.0,448.1C425.0,447.2 425.4,446.0 425.8,445.5C426.3,444.9 427.3,442.9 428.0,441.0C429.6,436.7 434.6,425.5 436.5,421.7C437.3,420.1 438.0,417.9 438.0,416.8C438.0,415.7 438.9,413.6 439.9,412.1C441.0,410.6 442.2,408.2 442.5,406.7C442.9,405.2 443.6,404.0 444.1,404.0C444.6,404.0 445.0,403.2 445.0,402.2C445.0,400.7 450.6,388.7 454.9,381.0C455.4,380.2 457.2,376.4 459.0,372.5C460.9,368.6 463.0,364.8 463.7,363.9C465.6,361.6 469.0,354.9 469.0,353.4C469.0,352.7 469.3,352.0 469.8,351.8C471.2,351.2 483.0,334.5 483.0,333.1C483.0,332.6 483.4,332.0 483.9,331.8C484.7,331.5 489.0,323.7 500.0,302.5C502.5,297.6 505.2,292.5 505.8,291.3C509.9,283.6 513.8,275.6 515.5,271.5C516.2,269.9 517.7,266.4 518.9,263.9C520.1,261.4 521.0,258.8 521.0,258.2C521.0,257.6 521.6,255.9 522.4,254.3C523.2,252.8 524.8,248.8 526.0,245.5C527.1,242.2 528.7,238.2 529.5,236.7C530.3,235.1 531.0,233.3 531.0,232.6C531.0,232.0 532.5,229.1 534.4,226.3C536.3,223.4 538.2,220.0 538.6,218.8C538.9,217.5 539.9,215.6 540.6,214.5C541.4,213.4 542.0,211.8 542.0,210.8C542.0,209.8 542.5,209.0 543.0,209.0C543.5,209.0 544.0,208.4 544.0,207.8C544.0,207.1 545.1,204.2 546.5,201.5C547.8,198.8 549.0,195.9 549.0,195.2C549.0,194.6 549.5,194.0 550.0,194.0C550.5,194.0 551.0,193.5 551.0,193.0C551.0,192.4 551.8,190.1 552.9,187.7C553.9,185.4 555.3,182.0 556.0,180.2C556.7,178.5 557.6,177.0 558.1,177.0C558.6,177.0 559.0,176.5 559.0,175.9C559.0,174.8 562.3,166.8 564.1,163.6C567.5,157.7 572.0,148.0 572.0,146.8C572.0,146.0 572.4,145.0 573.0,144.4C573.5,143.9 575.5,140.3 577.3,136.5C581.1,128.7 584.9,124.4 589.7,122.4C591.4,121.7 593.0,120.5 593.2,119.8C593.9,117.8 605.4,118.1 607.7,120.3C608.8,121.2 610.3,122.0 611.2,122.0C613.3,122.0 621.8,131.3 623.5,135.5C624.3,137.3 625.4,139.1 625.9,139.4C626.4,139.7 627.1,141.2 627.5,142.7C627.8,144.2 628.5,145.7 628.8,146.0C629.8,146.7 633.0,152.2 633.7,154.2C634.0,155.2 634.6,156.0 635.1,156.0C635.6,156.0 636.0,156.9 636.0,157.9C636.0,159.0 636.3,160.0 636.8,160.2C637.9,160.7 647.7,181.1 648.5,184.5C649.3,188.2 655.7,202.1 661.6,213.0C662.4,214.4 663.0,216.1 663.0,216.8C663.0,217.4 663.5,218.0 664.0,218.0C664.5,218.0 665.0,218.8 665.0,219.8C665.1,220.7 665.9,223.3 667.0,225.5C668.1,227.7 668.9,229.9 669.0,230.4C669.0,231.6 679.2,248.4 680.2,248.8C680.6,249.0 681.0,250.0 681.0,251.1C681.0,252.1 681.5,253.0 682.0,253.0C682.5,253.0 683.0,253.5 683.0,254.2C683.0,255.2 684.5,258.7 691.0,272.5C692.0,274.7 693.9,278.8 695.1,281.5C696.4,284.2 697.8,286.9 698.2,287.5C699.1,288.6 704.5,298.9 709.7,309.5C711.6,313.4 713.6,317.4 714.2,318.5C714.8,319.6 716.7,323.0 718.4,326.0C720.0,329.0 721.8,331.9 722.2,332.5C722.7,333.0 724.3,335.4 725.8,337.6C727.3,339.9 730.3,344.4 732.5,347.6C734.7,350.9 737.1,354.6 737.7,356.0C738.4,357.4 739.9,359.9 740.9,361.5C742.0,363.1 744.9,368.6 747.4,373.5C749.9,378.4 752.6,383.6 753.3,385.0C755.6,389.2 761.8,402.2 764.0,407.5C765.1,410.2 766.5,413.3 767.0,414.2C767.6,415.2 768.0,416.5 768.0,417.1C768.0,418.1 773.8,431.3 776.0,435.2C776.6,436.2 777.0,437.6 777.0,438.4C777.0,439.7 779.6,445.2 784.6,454.5C788.2,461.0 789.0,463.0 789.0,464.6C789.0,465.5 789.8,468.8 790.9,471.9C794.2,481.6 796.0,488.6 796.0,491.3C796.0,492.7 796.4,495.0 796.9,496.3C797.4,497.7 798.3,502.8 798.9,507.6C799.5,512.5 800.4,519.6 801.0,523.5C801.5,527.4 802.4,538.4 803.0,548.0C803.6,557.6 804.7,573.1 805.6,582.5C807.3,601.3 806.8,621.6 804.4,633.5C803.6,637.4 803.0,641.6 803.0,643.0C803.0,644.4 802.3,648.0 801.5,651.0C800.6,654.0 799.5,659.9 798.9,664.0C798.3,668.1 797.4,672.0 797.0,672.5C796.6,673.0 795.9,675.7 795.5,678.4C795.2,681.1 794.5,684.2 794.1,685.4C793.6,686.5 792.3,690.6 791.2,694.5C787.6,706.2 785.2,713.6 783.6,717.1C782.8,719.0 781.5,722.1 780.6,724.2C779.7,726.2 779.0,728.2 779.0,728.7C779.0,730.2 769.9,747.5 768.9,747.8C768.4,748.0 768.0,748.8 768.0,749.6C768.0,750.4 767.6,751.0 767.0,751.0C766.5,751.0 765.8,752.1 765.4,753.5C765.1,754.9 764.4,756.0 764.0,756.0C763.6,756.0 762.7,757.4 762.1,759.0C761.6,760.6 760.6,762.0 760.0,762.0C759.4,762.0 758.5,763.0 757.9,764.2C756.3,767.9 754.3,771.2 753.3,771.9C752.8,772.2 750.4,775.4 747.9,779.0C745.5,782.6 743.3,785.7 742.9,786.0C742.6,786.3 740.9,788.6 739.0,791.2C737.2,793.9 735.3,796.0 734.8,796.0C734.4,796.0 734.0,796.5 734.0,797.0C734.0,797.6 732.6,799.5 730.8,801.2C729.0,802.9 726.5,805.9 725.2,807.8C720.3,815.1 699.4,830.0 694.2,830.0C693.7,830.0 687.7,832.8 680.9,836.3C674.1,839.8 666.2,843.4 663.5,844.4C656.0,847.1 640.8,850.6 629.0,852.4C616.0,854.4 586.3,854.4 577.5,852.4Z M351.0,653.2C350.1,652.2 348.2,650.6 346.6,649.5C343.8,647.5 341.7,645.8 337.0,641.7C333.2,638.4 323.2,631.0 322.5,631.0C322.2,631.0 321.4,630.5 320.7,630.0C320.0,629.4 314.4,625.1 308.2,620.3C302.1,615.6 297.0,611.4 297.0,610.9C297.0,610.4 296.6,610.0 296.1,610.0C294.2,610.0 277.0,591.7 273.7,586.2C272.7,584.5 271.4,583.0 270.9,583.0C270.4,583.0 270.0,582.5 270.0,581.8C270.0,581.2 269.4,579.9 268.6,579.1C266.3,576.5 256.0,555.9 256.0,554.0C256.0,552.9 255.6,551.9 255.1,551.5C254.6,551.2 253.8,549.5 253.5,547.7C253.1,546.0 251.9,541.8 250.8,538.6C249.1,533.5 248.9,530.5 249.2,517.1C249.4,504.7 249.9,500.8 251.2,498.1C252.2,496.2 253.0,494.2 253.0,493.6C253.0,491.5 261.5,479.5 266.5,474.6C277.5,463.8 286.3,459.8 300.7,459.3C309.4,458.9 311.9,459.2 317.0,461.1C320.3,462.3 323.5,463.9 324.1,464.6C324.7,465.4 325.6,466.0 326.1,466.0C327.4,466.0 339.0,477.6 339.0,478.9C339.0,479.5 339.4,480.0 340.0,480.0C340.5,480.0 341.7,481.5 342.6,483.2C343.5,485.0 344.6,486.7 345.0,487.0C346.1,487.8 356.0,508.8 356.0,510.4C356.0,511.1 356.7,513.1 357.5,514.6C358.3,516.2 359.0,518.2 359.0,519.1C359.0,519.9 359.8,523.3 360.9,526.6C365.0,539.5 369.3,573.2 369.2,591.0C369.1,614.9 362.8,645.6 356.5,652.8C354.2,655.4 353.1,655.5 351.0,653.2Z M868.4,645.2C866.0,643.1 864.5,640.1 861.7,631.0C859.6,624.7 858.0,618.5 858.0,617.3C858.0,616.1 857.2,611.4 856.1,606.8C852.2,589.2 850.9,561.2 853.1,538.5C856.6,500.9 863.6,469.3 873.4,446.5C876.7,438.9 883.7,425.7 887.1,420.8C892.7,412.6 903.0,401.0 904.6,401.0C904.9,401.0 905.9,400.1 906.8,399.1C909.2,396.3 919.0,391.3 926.2,389.0C934.5,386.4 946.7,386.4 955.8,388.9C963.5,391.0 974.4,396.1 977.6,399.1C978.7,400.1 979.9,401.0 980.3,401.0C980.7,401.0 981.8,401.8 982.9,402.8C983.9,403.7 986.2,405.8 988.0,407.4C991.1,410.2 1000.1,421.3 1002.8,425.5C1004.7,428.6 1008.2,436.2 1009.1,439.5C1009.5,441.1 1010.6,445.0 1011.5,448.0C1013.8,456.3 1013.5,477.0 1010.9,488.5C1008.2,500.4 1006.1,507.6 1003.9,512.7C1002.8,515.1 1002.0,517.3 1002.0,517.7C1002.0,518.6 992.0,538.5 988.8,544.0C987.7,545.9 986.4,547.6 985.9,547.8C985.4,548.0 985.0,548.6 985.0,549.1C985.0,550.3 977.0,561.4 975.8,561.8C975.4,562.0 975.0,562.6 975.0,563.1C975.0,564.8 955.2,585.1 945.7,593.2C937.9,599.9 936.3,601.2 933.2,603.1C931.5,604.2 930.0,605.6 930.0,606.1C930.0,606.6 929.5,607.0 929.0,607.0C928.4,607.0 927.4,607.5 926.7,608.0C926.0,608.6 923.7,610.4 921.5,612.0C919.3,613.6 917.0,615.4 916.3,616.0C915.6,616.5 914.8,617.0 914.5,617.0C914.1,617.0 911.9,618.6 909.6,620.5C907.2,622.4 904.8,624.0 904.1,624.0C903.5,624.0 903.0,624.4 903.0,624.8C903.0,625.3 900.2,627.7 896.8,630.2C893.3,632.8 889.0,636.2 887.2,637.9C885.4,639.6 883.5,641.0 883.1,641.0C882.7,641.0 881.5,641.9 880.5,643.0C879.5,644.1 878.1,645.0 877.3,645.0C876.6,645.0 875.7,645.7 875.4,646.5C874.5,648.8 871.9,648.3 868.4,645.2Z" fill="#4B186E" fill-rule="evenodd"/>
  <path d="M568.0,1079.0C560.6,1078.7 575.0,1078.5 600.0,1078.5C626.9,1078.5 639.6,1078.8 631.0,1079.1C614.1,1079.9 587.2,1079.8 568.0,1079.0Z M531.5,1077.5C531.0,1077.3 526.5,1076.6 521.7,1076.0C516.9,1075.3 513.1,1074.6 513.3,1074.3C513.6,1074.1 518.9,1074.6 525.1,1075.4C531.4,1076.3 538.1,1077.1 540.0,1077.3C542.1,1077.5 541.2,1077.7 538.0,1077.8C535.0,1077.8 532.0,1077.7 531.5,1077.5Z M661.5,1077.4C663.1,1077.2 669.6,1076.3 675.9,1075.4C682.1,1074.6 687.4,1074.1 687.6,1074.3C688.3,1075.0 673.4,1077.1 665.5,1077.4C661.6,1077.6 659.9,1077.6 661.5,1077.4Z M494.0,1072.7C490.4,1072.1 488.6,1071.4 490.0,1071.3C491.4,1071.1 495.9,1071.6 500.0,1072.4C508.8,1074.0 503.7,1074.3 494.0,1072.7Z M700.0,1072.5C704.1,1071.7 708.9,1071.2 710.5,1071.2C712.1,1071.2 710.1,1071.8 706.0,1072.6C701.9,1073.3 697.1,1073.9 695.5,1073.8C693.9,1073.8 695.9,1073.2 700.0,1072.5Z M473.0,1069.5C470.0,1068.8 468.6,1068.2 470.0,1068.2C471.4,1068.1 475.0,1068.7 478.0,1069.5C481.0,1070.2 482.4,1070.8 481.0,1070.8C479.6,1070.8 476.0,1070.2 473.0,1069.5Z M722.5,1069.5C725.8,1068.7 729.6,1068.1 731.0,1068.2C732.4,1068.2 730.8,1068.8 727.5,1069.6C724.2,1070.3 720.4,1070.9 719.0,1070.9C717.6,1070.9 719.2,1070.2 722.5,1069.5Z M454.0,1066.0C446.6,1063.6 448.9,1063.5 457.0,1065.9C460.6,1067.0 462.6,1067.8 461.5,1067.8C460.4,1067.8 457.0,1067.0 454.0,1066.0Z M757.0,1063.1C757.8,1062.6 760.1,1062.0 762.0,1061.6C764.4,1061.2 764.8,1061.3 763.5,1061.8C760.4,1063.2 755.2,1064.2 757.0,1063.1Z M581.0,1051.9C579.1,1051.4 569.6,1050.9 560.0,1050.6C537.9,1049.9 526.4,1049.2 517.5,1047.9C513.6,1047.4 509.1,1047.0 507.5,1047.1C504.2,1047.4 485.0,1044.7 472.5,1042.3C468.1,1041.5 462.2,1040.4 459.3,1040.0C456.5,1039.6 452.7,1038.7 450.8,1038.2C443.3,1035.9 435.0,1033.6 426.0,1031.4C420.8,1030.1 414.5,1028.4 412.0,1027.6C409.5,1026.9 403.9,1025.5 399.5,1024.5C395.1,1023.6 389.2,1022.0 386.5,1021.0C383.8,1020.0 379.2,1018.4 376.5,1017.5C373.8,1016.5 370.1,1015.1 368.3,1014.4C366.6,1013.6 364.9,1013.0 364.5,1013.0C364.1,1013.0 362.4,1012.3 360.7,1011.5C356.7,1009.7 349.4,1007.1 345.5,1006.1C343.8,1005.7 341.5,1004.8 340.4,1004.2C339.3,1003.6 335.5,1002.1 331.9,1000.9C328.4,999.7 324.0,997.9 322.2,996.8C320.4,995.8 318.5,995.0 318.0,995.0C317.4,995.0 312.4,992.8 306.7,990.1C301.1,987.5 295.8,985.0 295.0,984.6C294.2,984.3 291.8,983.0 289.7,981.7C287.7,980.5 283.2,978.0 279.7,976.1C276.3,974.3 273.3,972.5 273.0,972.1C272.7,971.8 270.5,970.4 268.0,969.0C265.5,967.7 263.1,966.2 262.5,965.8C260.9,964.4 250.9,958.0 250.3,958.0C250.1,958.0 247.9,956.4 245.6,954.5C243.2,952.6 240.8,951.0 240.1,951.0C239.5,951.0 239.0,950.6 239.0,950.0C239.0,949.5 237.3,947.9 235.2,946.6C233.2,945.3 230.5,943.4 229.3,942.4C228.1,941.3 225.9,939.5 224.3,938.3C217.3,932.7 209.2,926.1 206.1,923.4C198.7,917.0 190.2,909.3 185.1,904.3C182.1,901.4 179.5,899.0 179.3,899.0C178.3,899.0 167.0,887.1 167.0,886.1C167.0,885.5 166.5,885.0 166.0,885.0C164.6,885.0 162.1,882.3 154.9,873.3C151.5,869.0 148.4,865.3 148.0,865.0C147.6,864.7 145.8,862.0 144.1,859.0C142.3,856.0 140.5,852.8 140.0,852.0C138.2,848.9 136.0,843.1 136.0,841.6C136.0,840.7 135.6,840.0 135.1,840.0C133.3,840.0 139.1,827.2 143.4,821.4C150.0,812.6 157.3,811.1 173.6,815.4C188.3,819.3 200.3,826.0 206.4,833.8C207.5,835.3 210.1,838.1 212.0,840.0C213.9,842.0 217.0,845.5 218.8,847.7C226.7,857.5 236.3,868.0 251.0,882.9C262.0,893.9 277.0,910.1 277.0,910.7C277.0,910.9 279.4,913.4 282.4,916.4C285.4,919.5 288.6,923.0 289.6,924.2C293.2,928.6 296.6,930.0 303.4,930.0C307.0,930.0 310.2,929.6 310.5,929.0C310.8,928.5 313.3,927.8 316.0,927.4C318.8,927.0 321.0,926.4 321.0,925.9C321.0,925.4 321.9,925.0 322.9,925.0C324.0,925.0 325.2,924.5 325.5,924.0C325.8,923.5 327.2,923.0 328.6,923.0C330.1,923.0 332.2,921.8 333.9,919.9C336.6,917.0 337.9,916.1 343.5,913.0C345.9,911.7 352.0,903.0 352.0,900.9C352.0,900.1 352.9,898.1 354.0,896.5C355.1,894.9 356.0,892.6 356.0,891.5C356.0,890.3 356.5,888.9 357.1,888.3C359.3,886.1 356.5,867.6 353.0,860.9C352.3,859.6 349.5,855.7 346.9,852.3C344.2,848.8 342.0,845.8 342.0,845.5C342.0,845.2 341.0,843.9 339.7,842.7C338.5,841.5 335.7,838.3 333.5,835.5C331.3,832.8 326.9,827.9 323.8,824.7C320.6,821.4 318.0,818.4 318.0,817.9C318.0,817.4 317.6,817.0 317.1,817.0C316.6,817.0 311.9,812.7 306.6,807.4C301.3,802.1 297.0,797.4 297.0,796.9C297.0,796.4 296.3,796.0 295.5,796.0C294.7,796.0 294.0,795.4 294.0,794.6C294.0,793.8 293.3,793.0 292.5,792.6C291.7,792.3 291.0,791.4 291.0,790.7C291.0,789.9 290.3,788.7 289.5,788.0C288.6,787.3 286.1,782.8 283.9,778.1C280.0,769.9 279.8,769.0 279.7,759.3C279.6,753.8 279.2,749.4 278.8,749.7C278.3,749.9 278.0,749.6 278.0,749.1C278.0,748.5 278.4,748.0 278.9,748.0C279.4,748.0 280.0,746.6 280.4,744.9C281.1,741.3 286.5,734.0 288.5,734.0C289.2,734.0 291.1,733.4 292.7,732.6C298.0,730.0 306.5,727.0 308.9,727.0C310.1,727.0 313.9,728.6 317.1,730.5C320.4,732.4 323.5,734.0 323.9,734.0C324.3,734.0 325.5,734.9 326.5,736.0C327.5,737.1 328.9,738.0 329.7,738.0C330.4,738.0 331.3,738.7 331.6,739.5C332.0,740.3 332.6,741.0 333.1,741.0C335.2,741.0 359.4,765.6 367.1,775.5C370.9,780.5 374.4,785.0 374.8,785.5C375.3,786.1 378.6,791.0 382.3,796.5C385.9,802.0 391.1,809.6 393.9,813.5C402.4,825.3 407.0,832.2 407.0,833.1C407.0,833.6 407.4,834.0 407.8,834.0C408.3,834.0 409.5,835.6 410.6,837.5C411.6,839.4 412.8,841.0 413.2,841.0C413.7,841.0 414.0,841.7 414.0,842.5C414.0,843.3 414.4,844.0 414.9,844.0C415.4,844.0 417.2,846.2 418.9,848.9C420.7,851.6 422.7,854.1 423.5,854.4C424.3,854.7 425.0,855.4 425.0,855.9C425.0,856.5 427.9,859.8 431.5,863.3C435.1,866.8 438.0,870.2 438.0,870.8C438.0,871.5 438.5,872.0 439.0,872.0C439.6,872.0 442.3,874.2 445.0,877.0C447.7,879.8 450.2,882.0 450.5,882.0C450.8,882.0 452.3,883.2 453.8,884.8C458.3,889.3 470.6,899.0 471.9,899.0C472.5,899.0 473.0,899.4 473.0,899.8C473.0,900.2 474.5,901.4 476.2,902.5C478.0,903.5 479.7,904.6 480.0,904.9C480.9,906.0 491.1,911.3 498.0,914.4C499.9,915.2 506.8,918.4 513.3,921.5C519.7,924.5 526.0,927.0 527.1,927.0C528.3,927.0 532.0,927.7 535.4,928.6C540.7,930.1 549.0,930.3 600.0,930.3C654.7,930.3 659.1,930.1 668.0,928.3C676.0,926.6 685.7,923.0 693.2,918.9C697.6,916.6 698.8,916.0 703.8,914.0C708.9,912.0 726.0,902.4 727.0,901.0C727.3,900.6 728.2,899.9 729.1,899.4C731.0,898.4 737.6,893.2 740.0,891.0C740.8,890.2 744.9,886.7 749.0,883.2C756.4,877.0 765.3,868.3 774.0,858.5C779.3,852.6 789.0,840.3 789.0,839.5C789.0,839.2 791.2,835.9 794.0,832.0C796.8,828.1 799.0,824.7 799.0,824.2C799.0,823.8 800.6,821.8 802.5,819.7C804.4,817.6 806.0,815.7 806.0,815.4C806.0,815.2 807.6,812.7 809.5,810.0C811.4,807.3 813.0,804.6 813.0,804.0C813.0,803.5 813.4,803.0 813.9,803.0C814.7,803.0 818.7,797.3 819.9,794.5C820.6,792.9 825.4,786.5 826.2,786.2C826.7,786.0 827.0,785.4 827.0,784.8C827.0,784.2 828.7,781.6 830.8,779.0C832.8,776.3 835.5,772.9 836.7,771.3C840.0,766.9 851.9,755.0 853.0,755.0C853.5,755.0 854.2,754.1 854.5,753.0C854.8,751.9 855.8,751.0 856.6,751.0C857.4,751.0 858.0,750.3 858.0,749.5C858.0,748.7 858.5,748.0 859.0,748.0C859.6,748.0 861.5,746.5 863.3,744.6C869.4,738.2 888.2,727.0 892.6,727.0C894.2,727.1 897.3,727.9 899.5,729.0C901.7,730.1 904.0,730.9 904.7,731.0C907.2,731.0 914.6,735.4 917.2,738.4C918.8,740.1 920.0,742.5 920.0,743.7C920.0,744.9 920.7,746.6 921.7,747.5C922.6,748.4 922.9,749.5 922.4,749.8C921.9,750.2 921.4,754.1 921.4,758.5C921.3,762.9 920.8,768.1 920.2,770.0C918.6,775.8 913.5,785.7 910.7,788.8C909.7,789.8 909.0,791.0 909.0,791.4C909.0,792.3 910.3,790.9 889.0,812.7C870.8,831.2 865.0,837.6 865.0,839.0C865.0,839.5 864.4,840.3 863.6,840.7C861.4,842.0 848.0,859.7 848.0,861.4C848.0,862.2 847.5,863.2 847.0,863.5C846.5,863.8 846.0,865.1 846.0,866.4C846.0,867.6 845.4,869.2 844.8,869.8C843.9,870.7 843.5,874.3 843.5,880.8C843.6,889.4 843.9,891.1 846.3,895.5C847.8,898.2 849.0,901.1 849.0,901.8C849.0,902.4 849.3,903.0 849.8,903.0C850.2,903.0 851.3,904.8 852.4,906.9C853.9,910.2 860.6,916.0 862.8,916.0C863.2,916.0 864.8,917.6 866.4,919.5C868.5,922.0 870.2,923.0 872.2,923.0C873.7,923.0 875.0,923.5 875.0,924.0C875.0,924.5 876.1,925.0 877.5,925.0C878.9,925.0 880.0,925.4 880.0,925.9C880.0,926.4 882.2,927.0 885.0,927.4C887.7,927.8 890.2,928.5 890.5,929.0C890.8,929.6 894.3,930.0 898.1,930.0L905.0,930.0L914.0,921.0C919.0,916.0 923.0,911.8 923.0,911.6C923.0,911.4 925.4,908.8 928.2,905.8C931.1,902.9 935.2,898.5 937.3,896.1C939.4,893.6 948.7,883.8 958.0,874.3C967.4,864.7 975.0,856.5 975.0,855.9C975.0,855.4 975.7,854.7 976.5,854.4C977.3,854.0 978.0,853.4 978.0,852.9C978.0,852.5 979.0,851.0 980.2,849.7C981.5,848.4 985.1,844.4 988.2,840.8C991.4,837.2 994.8,833.4 995.7,832.3C998.2,829.5 1006.7,823.0 1007.7,823.0C1008.2,823.0 1009.1,822.5 1009.8,821.8C1012.6,819.0 1034.9,813.0 1042.6,813.0C1046.7,813.0 1048.5,813.6 1051.6,815.9C1057.8,820.5 1064.0,829.7 1064.0,834.4C1064.0,835.4 1064.8,836.9 1065.8,837.6C1067.4,838.9 1067.4,839.1 1065.8,840.1C1064.8,840.6 1064.0,842.2 1064.0,843.5C1064.0,846.6 1061.4,852.1 1057.3,858.2C1055.5,860.8 1054.0,863.4 1054.0,864.0C1054.0,864.5 1053.6,865.0 1053.1,865.0C1052.7,865.0 1051.1,866.7 1049.7,868.8C1048.4,870.8 1045.6,874.2 1043.6,876.4C1041.6,878.5 1040.0,880.4 1040.0,880.6C1040.0,881.3 1027.7,893.0 1026.9,893.0C1026.4,893.0 1026.0,893.5 1026.0,894.1C1026.0,894.7 1024.1,896.8 1021.9,898.8C1019.6,900.8 1016.1,904.1 1014.1,906.0C1012.0,907.9 1008.4,911.3 1005.9,913.6C1003.5,915.9 1000.1,919.4 998.5,921.4C993.5,927.6 991.1,930.0 990.0,930.0C989.5,930.0 989.0,930.4 989.0,930.8C989.0,931.5 982.8,936.0 977.1,939.5C976.2,940.0 975.3,940.8 975.0,941.2C974.3,942.1 967.0,947.0 966.4,947.0C966.1,947.0 963.9,948.6 961.6,950.5C959.2,952.4 956.9,954.0 956.5,954.0C956.0,954.0 955.0,954.7 954.1,955.6C952.1,957.5 942.1,964.0 941.1,964.0C940.7,964.0 939.5,964.9 938.5,966.0C937.5,967.1 936.3,968.0 935.8,968.0C935.3,968.0 932.5,969.5 929.7,971.4C926.8,973.2 922.9,975.5 921.0,976.5C919.1,977.5 916.4,978.9 915.0,979.6C910.2,982.2 890.5,991.8 886.5,993.5C884.3,994.4 881.1,995.8 879.5,996.5C877.9,997.3 874.0,998.8 871.0,1000.0C868.0,1001.2 863.5,1003.0 861.0,1004.0C854.9,1006.4 850.1,1008.0 846.5,1009.0C844.9,1009.4 842.1,1010.5 840.5,1011.4C838.9,1012.3 837.0,1013.0 836.4,1013.0C835.8,1013.0 833.1,1013.9 830.4,1015.1C822.1,1018.6 821.7,1018.7 814.5,1020.8C808.0,1022.8 803.2,1024.1 792.0,1026.9C789.5,1027.5 784.4,1028.9 780.5,1030.0C776.6,1031.1 771.1,1032.5 768.1,1033.0C765.2,1033.5 762.3,1034.4 761.6,1034.9C761.0,1035.4 758.7,1036.1 756.5,1036.5C754.3,1036.9 750.2,1037.8 747.5,1038.6C739.9,1040.6 721.4,1044.2 716.7,1044.5C714.4,1044.6 708.2,1045.2 703.0,1045.9C693.6,1047.0 678.7,1048.5 668.0,1049.5C665.0,1049.8 653.5,1050.2 642.4,1050.5C631.4,1050.8 620.9,1051.4 619.2,1051.9C617.5,1052.4 615.9,1052.6 615.7,1052.3C615.1,1051.8 586.3,1051.7 585.2,1052.3C584.8,1052.5 582.9,1052.3 581.0,1051.9Z M338.5,1035.0C336.3,1033.9 335.2,1033.1 336.0,1033.1C336.8,1033.1 339.1,1033.9 341.0,1035.0C345.6,1037.5 343.7,1037.5 338.5,1035.0Z M857.0,1036.5C857.0,1036.0 863.8,1033.0 864.9,1033.0C865.7,1033.1 858.8,1036.9 857.8,1037.0C857.3,1037.0 857.0,1036.8 857.0,1036.5Z M321.1,1028.4C319.2,1027.6 317.9,1026.7 318.2,1026.5C318.7,1025.9 326.0,1028.7 326.0,1029.5C326.0,1030.3 324.7,1030.0 321.1,1028.4Z M875.0,1029.5C875.0,1028.8 882.2,1025.9 882.8,1026.4C883.0,1026.7 881.5,1027.6 879.5,1028.4C875.4,1030.1 875.0,1030.2 875.0,1029.5Z M312.0,1024.8C310.6,1024.2 310.0,1023.6 310.6,1023.4C311.2,1023.1 313.0,1023.6 314.6,1024.5C317.9,1026.2 315.9,1026.4 312.0,1024.8Z M304.1,1021.3C302.2,1020.4 301.2,1019.4 301.7,1019.3C302.3,1019.1 304.3,1019.8 306.1,1020.9C310.2,1023.4 308.9,1023.6 304.1,1021.3Z M292.7,1016.2C290.1,1014.8 288.2,1013.5 288.3,1013.3C288.8,1012.9 300.0,1017.8 300.0,1018.5C300.0,1019.5 297.4,1018.7 292.7,1016.2Z M279.7,1009.7C276.5,1008.0 274.3,1006.4 274.8,1006.2C275.6,1006.0 285.4,1011.1 286.9,1012.6C288.2,1013.8 284.7,1012.4 279.7,1009.7Z M916.8,1010.9C918.6,1009.7 920.3,1009.0 920.6,1009.3C920.9,1009.6 919.8,1010.6 918.1,1011.4C913.8,1013.7 912.9,1013.3 916.8,1010.9Z M922.0,1008.6C922.0,1008.2 936.0,1000.1 938.4,999.1C940.5,998.3 937.7,1001.0 935.2,1002.3C933.7,1003.1 930.3,1004.9 927.6,1006.3C922.5,1009.1 922.0,1009.3 922.0,1008.6Z M947.0,994.2C947.0,993.6 947.8,992.9 948.8,992.6C949.7,992.3 952.9,990.5 955.8,988.6C958.6,986.7 961.0,985.5 961.0,985.9C961.0,986.3 959.3,987.6 957.2,988.8C955.2,990.0 952.0,991.9 950.2,993.1C948.5,994.2 947.0,994.7 947.0,994.2Z M245.6,990.2C242.3,988.3 240.7,987.2 237.0,984.0C235.6,982.8 235.2,982.2 236.0,982.6C238.5,983.9 249.0,991.1 249.0,991.6C249.0,992.2 248.8,992.1 245.6,990.2Z M232.0,981.2C232.0,980.7 230.4,979.5 228.5,978.4C226.6,977.4 225.0,976.2 225.0,975.8C225.0,975.3 224.3,975.0 223.5,975.0C222.7,975.0 222.0,974.6 222.0,974.1C222.0,973.6 219.9,971.8 217.2,970.1C214.6,968.5 211.4,966.0 210.0,964.8C208.6,963.5 205.9,961.3 204.0,959.9C202.1,958.4 199.5,956.4 198.3,955.4C197.1,954.3 195.0,952.6 193.6,951.6C192.1,950.6 191.2,949.5 191.5,949.2C191.7,948.9 194.3,950.7 197.2,953.2C200.1,955.7 208.6,962.2 216.0,967.8C233.5,980.9 234.7,981.9 233.2,982.0C232.6,982.0 232.0,981.6 232.0,981.2Z M977.6,973.7C978.2,972.2 985.0,967.8 985.0,968.9C985.0,969.4 983.2,970.9 981.0,972.4C978.9,973.8 977.3,974.4 977.6,973.7Z M991.6,962.8C993.2,961.6 996.4,959.1 998.7,957.3C1001.1,955.4 1002.7,954.5 1002.5,955.2C1001.9,956.6 990.8,965.0 989.5,965.0C989.1,965.0 990.0,964.0 991.6,962.8Z M181.0,940.5C179.1,938.6 177.9,937.0 178.3,937.0C179.1,937.0 185.0,942.7 185.0,943.5C185.0,944.5 184.4,944.0 181.0,940.5Z M1020.1,939.4C1020.2,938.4 1037.6,922.8 1039.4,922.1C1040.8,921.5 1030.5,931.4 1022.2,938.4C1021.0,939.5 1020.0,939.9 1020.1,939.4Z M166.0,927.0C160.2,921.5 155.9,917.0 156.4,917.0C156.8,917.0 160.0,919.6 163.4,922.8C166.7,926.1 171.3,930.3 173.4,932.3C175.6,934.3 177.2,936.2 176.9,936.4C176.6,936.7 171.7,932.4 166.0,927.0Z M1043.1,918.3C1045.6,915.2 1056.1,905.0 1056.8,905.0C1057.2,905.0 1054.1,908.4 1050.0,912.5C1042.9,919.7 1040.2,921.9 1043.1,918.3Z M151.2,913.3C150.0,911.9 149.0,910.2 149.0,909.7C149.0,909.1 149.1,908.9 149.2,909.1C149.4,909.3 150.8,911.0 152.4,912.8C154.1,914.5 155.0,916.0 154.4,915.9C153.9,915.9 152.5,914.7 151.2,913.3Z M136.4,897.4C129.2,889.1 125.5,883.9 127.4,884.6C128.3,884.9 129.0,885.8 129.0,886.4C129.0,887.1 130.3,888.9 131.8,890.6C139.2,898.3 143.2,903.0 142.3,903.0C141.8,903.0 139.1,900.5 136.4,897.4Z M307.0,901.0C305.1,899.9 303.9,899.1 304.5,899.1C305.1,899.1 306.6,899.7 308.0,900.5C309.4,901.3 312.2,901.9 314.2,902.0C317.9,902.0 325.0,899.3 325.0,897.9C325.0,897.5 325.7,896.9 326.6,896.6C329.8,895.4 325.9,899.0 321.9,901.1C317.1,903.5 311.5,903.5 307.0,901.0Z M567.0,901.7C556.8,900.1 561.4,899.9 572.5,901.4C578.2,902.2 580.5,902.8 578.0,902.8C575.5,902.8 570.6,902.3 567.0,901.7Z M879.5,901.4C875.9,899.6 872.0,896.0 872.0,894.7C872.0,894.1 872.9,894.7 874.0,895.9C878.7,901.4 887.7,903.6 893.0,900.5C894.4,899.7 896.0,899.1 896.5,899.1C897.0,899.1 895.9,899.9 894.0,901.0C889.7,903.3 883.5,903.5 879.5,901.4Z M631.5,900.9C633.7,900.5 636.9,900.1 638.5,900.2C641.1,900.2 641.0,900.3 637.5,901.1C635.3,901.5 632.1,901.9 630.5,901.8C627.9,901.8 628.0,901.7 631.5,900.9Z M1065.7,894.3C1068.4,891.1 1072.1,886.6 1073.9,884.2C1075.7,881.8 1077.5,880.2 1077.8,880.5C1078.2,880.8 1078.0,881.4 1077.5,881.8C1076.9,882.2 1075.2,884.3 1073.6,886.5C1071.9,888.7 1069.1,892.1 1067.3,894.0C1065.5,895.9 1064.0,897.7 1064.0,898.1C1064.0,898.5 1063.3,899.1 1062.4,899.4C1061.5,899.7 1063.0,897.4 1065.7,894.3Z M541.0,898.0C539.8,897.2 539.9,897.0 541.5,897.1C542.6,897.2 544.6,897.6 546.0,898.0C548.4,898.8 548.4,898.8 545.5,898.9C543.9,898.9 541.8,898.5 541.0,898.0Z M654.5,898.0C656.1,897.6 658.4,897.2 659.5,897.2L661.5,897.1L659.5,898.0C658.4,898.5 656.1,898.8 654.5,898.8L651.5,898.8L654.5,898.0Z M898.0,898.5C898.0,898.3 899.8,897.1 902.0,896.0C904.2,894.9 906.0,893.5 906.0,893.0C906.0,892.4 906.5,892.0 907.1,892.0C908.8,892.0 907.1,893.9 902.9,896.5C899.0,899.0 898.0,899.4 898.0,898.5Z M525.5,894.8C523.9,894.3 521.9,893.6 521.1,893.4C520.3,893.2 519.9,892.7 520.2,892.5C520.4,892.2 523.1,892.9 526.1,893.9C531.6,895.9 531.0,896.7 525.5,894.8Z M674.5,893.9C677.8,892.9 681.0,892.1 681.5,892.1C683.3,892.2 672.6,895.8 670.5,895.8C669.4,895.8 671.2,895.0 674.5,893.9Z M328.5,888.5C328.5,885.0 328.8,882.7 329.2,883.3C329.6,884.0 330.0,886.3 330.0,888.5C330.0,890.7 329.6,893.0 329.2,893.7C328.8,894.3 328.5,892.0 328.5,888.5Z M284.0,883.9C275.4,875.3 269.0,868.2 272.0,870.6C275.3,873.1 291.6,890.0 290.7,890.0C290.4,890.0 287.3,887.2 284.0,883.9Z M692.5,887.0C694.1,885.9 696.0,885.0 696.5,885.0C698.1,885.1 692.7,889.0 691.0,889.0C690.2,889.0 690.9,888.1 692.5,887.0Z M914.5,885.1C917.2,882.0 923.5,875.6 925.7,873.9C929.3,871.2 921.7,879.4 915.9,884.5C913.6,886.5 913.2,886.7 914.5,885.1Z M699.0,883.9C701.4,881.7 707.0,878.8 707.0,879.8C707.0,880.2 705.3,881.5 703.2,882.5C697.7,885.3 697.4,885.5 699.0,883.9Z M124.5,882.2C123.1,881.3 119.0,875.4 119.0,874.5C119.0,874.1 119.7,874.3 120.5,875.0C121.3,875.7 122.0,876.9 122.0,877.6C122.0,878.4 122.3,879.0 122.8,879.0C123.2,879.0 124.1,879.9 124.8,881.0C126.1,883.2 126.1,883.4 124.5,882.2Z M492.1,878.9C489.7,877.2 488.1,875.6 488.3,875.3C488.6,875.0 489.9,875.7 491.1,876.9C492.3,878.0 494.2,879.2 495.2,879.6C496.2,879.9 497.0,880.6 497.0,881.1C497.0,882.4 496.7,882.3 492.1,878.9Z M709.7,877.2C710.7,876.2 713.1,874.3 715.0,873.0C716.9,871.7 719.2,869.9 720.2,869.1C721.1,868.2 723.3,866.4 725.2,865.0C727.0,863.6 734.3,856.8 741.4,849.7C748.5,842.7 754.4,837.1 754.6,837.3C755.2,837.8 737.8,855.4 730.5,861.6C716.9,873.3 704.1,882.9 709.7,877.2Z M1079.7,876.2C1081.9,872.7 1085.4,868.2 1084.9,869.5C1083.9,872.1 1079.4,879.0 1078.7,879.0C1078.3,879.0 1078.7,877.8 1079.7,876.2Z M481.4,870.9C466.6,858.8 447.0,839.8 447.0,837.6C447.0,837.0 448.9,838.8 451.2,841.5C458.6,849.8 471.3,861.8 479.6,868.2C481.2,869.5 483.1,871.0 483.7,871.6C484.4,872.3 485.5,873.0 486.2,873.3C486.9,873.5 487.3,874.0 486.9,874.3C486.6,874.7 484.2,873.1 481.4,870.9Z M267.5,867.2C266.9,866.8 264.8,864.4 262.7,861.8C260.6,859.1 258.3,857.0 257.6,857.0C256.8,857.0 255.7,856.3 255.0,855.5C254.3,854.7 254.1,854.0 254.5,854.0C255.6,854.0 261.4,858.3 262.3,859.8C262.8,860.5 264.5,862.7 266.2,864.6C269.1,867.9 269.5,868.7 267.5,867.2Z M317.4,862.2C315.9,860.2 313.1,856.9 311.3,855.0C309.6,853.1 308.3,851.3 308.6,851.1C309.1,850.5 313.8,855.8 318.1,861.8C321.8,867.0 321.3,867.4 317.4,862.2Z M1088.0,861.2C1088.1,860.8 1088.9,858.9 1090.0,857.0C1092.3,852.9 1092.7,854.7 1090.5,859.0C1089.0,861.9 1088.0,862.8 1088.0,861.2Z M109.7,856.5C108.8,854.5 108.0,852.4 108.1,851.7C108.1,851.0 109.0,852.5 110.1,854.9C112.4,860.2 112.1,861.5 109.7,856.5Z M941.5,857.3C942.0,856.8 944.3,855.1 946.5,853.5C949.8,851.1 950.1,851.0 948.5,852.9C947.4,854.2 945.2,855.9 943.5,856.7C941.9,857.5 941.0,857.8 941.5,857.3Z M578.0,852.4L572.5,851.1L578.0,851.7C581.0,852.0 586.4,852.6 590.0,853.0L596.5,853.7L590.0,853.7C586.4,853.8 581.0,853.2 578.0,852.4Z M615.5,853.0C618.8,852.6 624.2,852.0 627.5,851.7L633.5,851.1L627.0,852.5C623.4,853.3 618.0,853.9 615.0,853.8L609.5,853.7L615.5,853.0Z M891.0,851.4C892.4,849.9 901.1,840.9 910.5,831.4C919.9,822.0 928.9,812.5 930.7,810.4C932.5,808.2 933.9,807.1 933.9,807.7C934.0,808.9 891.4,853.1 889.5,853.9C889.0,854.1 889.6,853.0 891.0,851.4Z M559.5,849.5C554.1,847.8 558.2,847.7 564.5,849.5C568.4,850.6 568.9,850.9 566.5,850.9C564.9,850.9 561.7,850.3 559.5,849.5Z M641.5,849.6C644.2,848.7 647.4,848.1 648.5,848.1C650.4,848.1 650.4,848.2 648.4,849.0C647.2,849.5 644.1,850.1 641.4,850.4L636.5,851.0L641.5,849.6Z M1092.6,848.2C1093.4,843.8 1093.4,834.1 1092.6,829.8C1092.0,826.9 1092.1,826.7 1093.1,828.5C1094.7,831.0 1094.7,845.6 1093.2,849.0C1092.1,851.4 1092.0,851.3 1092.6,848.2Z M302.1,844.9C299.3,842.0 297.1,839.6 297.3,839.4C297.5,839.2 300.0,841.3 302.9,844.1C305.8,846.9 308.0,849.4 307.8,849.6C307.5,849.8 305.0,847.7 302.1,844.9Z M106.8,843.2C106.5,840.6 106.6,836.5 107.0,834.0C107.6,830.2 107.8,831.0 107.9,838.8C107.9,843.8 107.8,848.0 107.6,848.0C107.4,848.0 107.0,845.9 106.8,843.2Z M547.0,846.3C544.5,845.4 543.0,844.5 543.5,844.3C544.0,844.2 546.8,844.9 549.5,846.0C555.5,848.3 553.4,848.5 547.0,846.3Z M655.9,846.0C658.3,844.9 660.7,844.0 661.4,844.1C662.9,844.2 654.8,847.9 653.0,848.0C652.2,848.0 653.5,847.1 655.9,846.0Z M244.4,844.2C243.1,843.4 234.8,833.2 233.6,831.0C232.8,829.7 232.9,829.7 234.2,831.0C236.7,833.6 246.2,845.0 245.8,845.0C245.7,845.0 245.0,844.6 244.4,844.2Z M529.5,838.6C522.5,834.8 521.5,834.1 522.5,834.0C523.0,834.0 526.2,835.6 529.5,837.5C532.8,839.4 535.0,840.9 534.5,840.9C534.0,840.9 531.7,839.9 529.5,838.6Z M671.0,840.5C671.0,839.9 676.6,837.0 677.7,837.0C678.1,837.0 677.1,837.9 675.5,839.0C672.6,840.9 671.0,841.5 671.0,840.5Z M284.0,826.3C277.7,819.9 273.4,815.3 274.4,816.1C277.5,818.3 297.0,838.0 296.2,838.0C295.8,838.0 290.3,832.7 284.0,826.3Z M441.7,831.9C439.7,829.2 438.3,827.0 438.8,827.0C439.7,827.0 446.3,836.0 445.8,836.5C445.6,836.6 443.8,834.5 441.7,831.9Z M755.0,835.4C755.0,834.7 755.7,834.0 756.5,833.6C757.3,833.3 758.0,832.4 758.0,831.5C758.0,830.7 758.4,830.0 758.8,830.0C759.3,830.0 761.1,827.8 762.9,825.0C764.7,822.3 766.6,819.7 767.2,819.3C768.5,818.6 764.5,825.3 761.9,828.5C756.5,834.9 755.1,836.4 755.0,835.4Z M516.5,832.0C514.9,830.9 514.2,830.0 515.0,830.0C516.7,830.0 522.1,833.9 520.5,834.0C520.0,834.0 518.1,833.1 516.5,832.0Z M687.0,832.0C688.4,830.9 690.2,830.0 691.0,830.0C691.8,830.0 691.1,830.9 689.5,832.0C685.6,834.6 683.7,834.6 687.0,832.0Z M966.1,831.3C970.7,826.1 974.3,822.5 972.9,824.5C969.8,829.0 965.4,834.0 964.6,834.0C964.1,834.0 964.7,832.8 966.1,831.3Z M108.1,826.0C108.1,825.2 109.0,822.9 110.1,821.0C111.6,818.4 111.9,818.1 111.4,820.0C110.5,823.5 108.1,827.8 108.1,826.0Z M703.2,825.4C704.1,824.4 706.4,822.7 708.2,821.6L711.5,819.8L708.5,822.4C706.9,823.8 704.6,825.5 703.5,826.2C701.6,827.2 701.6,827.2 703.2,825.4Z M435.4,823.1C434.4,821.4 433.3,820.0 432.9,820.0C432.5,820.0 432.0,819.2 431.7,818.2C431.3,817.3 430.3,815.4 429.3,814.0C428.3,812.7 428.0,811.9 428.7,812.3C430.2,813.3 438.2,825.2 437.6,825.7C437.4,825.9 436.4,824.8 435.4,823.1Z M225.1,821.9C223.3,820.3 222.0,818.7 222.2,818.5C222.4,818.2 224.2,819.6 226.0,821.5C230.2,825.8 229.6,826.1 225.1,821.9Z M588.0,819.9C586.6,819.5 583.6,819.2 581.3,819.1C579.0,819.0 576.8,818.5 576.5,818.0C576.2,817.5 574.4,817.0 572.7,817.0C570.9,817.0 568.4,816.4 567.0,815.7C565.6,815.0 561.1,813.3 557.0,812.0C552.9,810.7 548.4,808.9 547.0,808.0C545.6,807.1 542.5,805.5 540.0,804.5C537.5,803.5 533.5,801.2 531.0,799.6C528.5,797.9 524.8,795.6 522.8,794.5C519.0,792.4 509.2,784.2 503.0,778.0C496.9,771.8 490.0,763.9 490.0,763.1C490.0,762.6 489.3,762.0 488.5,761.6C487.7,761.3 487.0,760.4 487.0,759.6C487.0,758.8 486.7,758.0 486.2,757.8C485.0,757.3 480.0,750.2 480.0,749.1C480.0,748.5 479.6,748.0 479.1,748.0C478.6,748.0 476.5,745.0 474.4,741.2C472.4,737.5 470.3,734.4 469.8,734.2C469.4,734.0 469.0,733.4 469.0,732.9C469.0,732.4 467.5,728.7 465.7,724.7C463.8,720.7 461.5,715.5 460.6,713.0C459.6,710.5 458.2,707.0 457.4,705.2C456.6,703.4 456.0,701.3 456.0,700.5C456.0,699.6 455.2,697.1 454.1,694.7C452.4,690.7 450.7,685.0 449.0,677.0C448.6,675.1 447.5,670.8 446.6,667.5C445.7,664.3 445.0,660.4 445.0,658.9C445.0,657.4 444.6,655.0 444.1,653.7C443.5,652.3 442.6,645.6 442.0,638.8C441.4,632.1 440.2,623.8 439.4,620.5C438.6,617.2 438.3,614.4 438.7,614.3C439.7,613.9 439.4,580.2 438.5,577.7C438.1,576.8 438.3,574.7 438.8,573.2C439.9,570.4 440.5,566.3 441.5,552.5C442.6,537.7 445.5,523.5 450.6,508.5C451.4,506.2 452.0,503.8 452.0,503.1C452.0,502.4 452.6,500.4 453.4,498.7C455.5,493.9 459.0,483.5 459.0,482.0C459.0,481.4 459.6,479.4 460.4,477.7C461.2,475.9 462.1,473.4 462.4,472.0C462.8,469.8 465.7,460.7 470.6,446.0C471.4,443.5 472.6,439.7 473.1,437.5C473.7,435.4 474.5,433.1 474.9,432.5C475.4,432.0 476.0,430.2 476.4,428.5C476.8,426.9 480.0,419.7 483.5,412.5C492.6,393.8 498.2,381.9 503.1,370.5C505.4,365.0 508.1,359.4 509.0,358.0C509.9,356.6 511.7,353.4 513.1,350.8C514.4,348.1 515.8,346.0 516.2,346.0C516.7,346.0 517.0,345.2 517.0,344.2C517.0,343.2 517.4,342.0 517.9,341.5C518.5,340.9 520.4,337.6 522.3,334.0C524.1,330.4 526.1,326.6 526.7,325.5C527.3,324.4 528.6,321.7 529.6,319.5C530.7,317.3 531.7,315.3 532.0,315.0C532.5,314.5 534.1,311.5 539.5,301.0C541.9,296.3 547.0,285.2 550.0,278.5C550.9,276.3 552.7,272.4 553.9,269.9C555.0,267.4 556.0,265.0 556.0,264.6C556.0,264.2 556.7,263.2 557.5,262.4C558.3,261.5 559.0,260.0 559.0,259.1C559.0,258.1 559.7,256.7 560.5,256.0C561.3,255.3 562.0,254.2 562.0,253.5C562.0,252.8 564.0,248.5 566.4,243.9C575.7,226.2 591.2,194.3 594.8,185.5C598.3,176.8 599.9,172.6 600.5,170.2C601.6,166.2 604.8,167.5 606.4,172.7C609.4,182.3 611.2,186.7 617.6,200.0C621.2,207.4 624.7,214.6 625.5,216.0C626.2,217.4 627.8,220.5 629.0,223.0C630.2,225.5 632.3,229.8 633.7,232.5C635.1,235.2 637.4,239.8 638.7,242.5C640.0,245.2 641.6,248.4 642.2,249.5C642.9,250.6 644.4,253.8 645.7,256.5C647.0,259.2 648.6,262.4 649.2,263.5C649.8,264.6 651.0,266.9 651.7,268.5C652.5,270.1 653.5,272.3 654.1,273.2C654.6,274.2 655.0,275.5 655.0,276.0C655.0,277.1 660.1,288.4 664.6,297.0C674.0,315.5 678.5,324.2 680.2,327.0C680.7,327.8 681.7,329.9 682.5,331.7C683.3,333.4 684.4,335.1 685.0,335.5C685.5,335.8 686.0,336.9 686.0,337.9C686.0,338.9 686.7,340.3 687.5,341.0C688.3,341.7 689.0,343.1 689.0,344.1C689.0,345.2 689.4,346.0 689.8,346.0C690.9,346.0 701.3,366.9 711.5,389.5C713.7,394.3 726.9,422.1 729.1,426.3C730.1,428.5 731.0,430.9 731.0,431.8C731.0,432.8 731.7,434.8 732.5,436.4C733.3,437.9 734.0,440.0 734.0,441.0C734.0,441.9 734.8,444.9 735.9,447.6C736.9,450.3 738.5,455.2 739.5,458.5C742.8,470.0 744.3,474.5 745.6,478.0C746.4,479.9 747.9,484.6 749.1,488.5C750.3,492.4 752.0,497.8 753.0,500.5C760.3,520.9 763.8,537.6 765.0,557.5C765.5,564.1 766.3,571.2 767.0,573.3C767.7,575.8 767.8,577.5 767.2,578.3C765.9,579.9 765.9,613.3 767.2,614.1C767.8,614.5 767.6,616.4 766.7,619.2C765.8,621.7 765.0,627.2 764.9,631.6C764.6,644.2 758.4,675.5 753.4,690.0C752.6,692.5 751.4,696.3 750.9,698.5C750.3,700.7 749.5,702.9 748.9,703.5C748.4,704.0 748.0,705.3 748.0,706.5C748.0,707.6 747.1,710.0 746.0,711.8C744.9,713.6 744.0,715.5 744.0,716.0C744.0,718.5 731.8,742.1 728.8,745.4C727.8,746.5 727.0,748.0 727.0,748.7C727.0,749.5 726.3,750.3 725.5,750.6C724.7,751.0 724.0,752.1 724.0,753.1C724.0,754.1 723.6,755.0 723.2,755.0C722.7,755.0 720.9,757.1 719.0,759.6C715.2,765.0 713.1,767.4 702.7,778.0C698.4,782.4 694.5,786.0 694.0,786.0C693.6,786.0 693.0,786.7 692.6,787.5C692.3,788.3 691.4,789.0 690.5,789.0C689.7,789.0 689.0,789.4 689.0,789.8C689.0,790.8 681.3,796.0 679.9,796.0C679.4,796.0 679.0,796.4 679.0,796.8C679.0,797.3 677.5,798.4 675.8,799.4C674.0,800.3 670.7,802.2 668.5,803.5C666.3,804.8 663.9,805.9 663.2,805.9C662.5,806.0 660.7,806.8 659.3,807.7C656.5,809.6 651.9,811.4 646.0,813.1C644.1,813.7 641.1,814.8 639.3,815.6C637.6,816.4 634.8,817.0 633.2,817.0C631.5,817.0 629.9,817.4 629.6,817.9C628.3,819.9 593.9,821.6 588.0,819.9Z M770.9,813.8C772.6,811.1 774.3,809.0 774.6,809.0C775.5,809.0 771.6,815.1 769.6,816.8C768.5,817.7 769.1,816.4 770.9,813.8Z M217.1,813.9C215.4,812.2 214.0,810.6 214.0,810.2C214.0,809.9 215.6,811.1 217.5,813.0C219.4,814.9 221.0,816.5 221.0,816.7C221.0,817.5 219.9,816.7 217.1,813.9Z M981.1,815.3C983.5,812.4 986.2,809.8 986.5,810.2C986.9,810.6 981.2,817.0 980.4,817.0C980.0,817.0 980.4,816.2 981.1,815.3Z M115.0,811.6C115.0,810.2 121.9,801.8 126.9,797.2C134.4,790.3 133.6,792.4 125.7,800.3C121.8,804.3 117.7,808.7 116.8,810.0C115.8,811.3 115.0,812.0 115.0,811.6Z M424.8,807.8C423.5,806.0 422.0,803.8 421.5,803.0C420.7,801.7 420.9,801.7 422.3,802.8C423.8,804.1 428.3,811.0 427.6,811.0C427.4,811.0 426.1,809.5 424.8,807.8Z M481.0,809.0C481.0,808.4 479.1,805.9 476.9,803.5C474.6,801.0 473.1,799.0 473.5,799.0C474.4,799.0 478.0,802.8 480.9,806.9C482.1,808.6 482.7,810.0 482.1,810.0C481.5,810.0 481.0,809.5 481.0,809.0Z M988.8,808.4C989.7,806.7 996.0,802.3 996.0,803.3C996.0,803.5 994.2,805.2 991.9,807.0C989.2,809.1 988.1,809.6 988.8,808.4Z M775.0,807.2C775.0,806.6 775.3,806.0 775.8,805.8C776.7,805.4 782.0,798.4 782.0,797.6C782.0,797.3 782.8,796.2 783.8,795.1C784.7,794.1 787.1,790.9 789.0,788.0C790.9,785.2 793.3,781.9 794.3,780.7C797.8,776.5 794.5,782.1 788.8,790.1C785.9,794.2 782.2,799.4 780.6,801.7C777.4,806.5 775.0,808.8 775.0,807.2Z M201.5,802.0C201.1,801.4 198.8,800.0 196.4,798.8C193.9,797.7 192.1,796.6 192.3,796.3C192.8,795.9 202.0,800.6 203.4,802.1C204.0,802.7 204.0,803.0 203.3,803.0C202.6,803.0 201.8,802.5 201.5,802.0Z M1071.0,796.0C1069.1,794.4 1067.0,793.0 1066.5,793.0C1065.4,792.9 1060.1,789.1 1061.1,789.0C1062.9,789.0 1073.2,795.7 1074.4,797.8C1075.5,799.6 1074.9,799.3 1071.0,796.0Z M415.8,795.2C415.0,794.3 413.6,792.1 412.6,790.5L410.9,787.5L413.5,790.5C416.2,793.6 418.4,797.0 417.7,797.0C417.5,797.0 416.6,796.2 415.8,795.2Z M185.6,794.5C183.0,792.6 185.0,792.6 188.6,794.5C190.9,795.7 191.1,796.0 189.5,796.0C188.4,795.9 186.6,795.3 185.6,794.5Z M257.6,791.9C256.6,790.2 256.0,788.6 256.3,788.3C256.6,788.0 257.6,789.2 258.5,791.0C260.6,795.1 259.9,795.8 257.6,791.9Z M135.0,791.6C135.8,790.8 137.6,789.9 139.0,789.5C141.1,789.0 141.0,789.2 138.2,790.9C134.5,793.3 132.9,793.6 135.0,791.6Z M174.5,790.8C170.9,789.5 170.4,789.1 172.6,789.4C176.2,790.0 183.3,792.9 181.0,792.8C180.2,792.8 177.2,791.9 174.5,790.8Z M465.1,789.0C463.4,786.8 462.6,785.3 463.4,785.6C464.7,786.1 469.5,793.0 468.6,793.0C468.5,793.0 466.9,791.2 465.1,789.0Z M1022.9,790.9C1025.4,789.8 1028.1,789.1 1028.9,789.2C1029.8,789.4 1028.2,790.3 1025.3,791.3C1018.5,793.5 1017.4,793.4 1022.9,790.9Z M146.5,787.6C151.8,785.7 157.3,785.7 163.5,787.5C168.0,788.8 168.1,788.9 164.5,788.4C159.9,787.7 149.2,787.8 145.2,788.5C143.7,788.7 144.3,788.3 146.5,787.6Z M944.1,788.0C944.1,787.2 944.7,785.4 945.5,784.0C946.3,782.6 946.9,782.1 946.9,783.0C946.9,783.8 946.3,785.6 945.5,787.0C944.7,788.4 944.1,788.9 944.1,788.0Z M1037.5,787.5C1043.6,785.7 1049.2,785.7 1054.5,787.5L1058.5,788.8L1054.0,788.2C1048.3,787.5 1044.9,787.5 1038.0,788.3L1032.5,788.9L1037.5,787.5Z M254.2,784.1C252.5,779.3 252.8,777.8 254.6,781.9C255.4,783.8 255.9,785.8 255.7,786.4C255.5,787.0 254.8,785.9 254.2,784.1Z M408.8,785.2C407.0,783.0 404.0,778.2 404.0,777.5C404.0,776.6 406.5,779.3 407.3,781.0C407.7,781.8 408.7,783.5 409.6,784.8C411.5,787.4 411.0,787.8 408.8,785.2Z M947.0,780.1C947.0,779.6 947.5,777.9 948.1,776.3C948.7,774.8 949.5,771.0 949.9,768.0C950.7,763.2 950.8,763.0 950.9,766.3C950.9,768.5 950.3,772.6 949.4,775.6C948.0,780.6 947.0,782.4 947.0,780.1Z M250.9,772.8C249.0,765.7 249.3,745.9 251.3,740.0C252.3,737.1 252.8,736.3 252.9,737.7C253.0,738.9 252.5,741.1 251.9,742.6C250.5,746.6 250.5,765.6 252.0,771.9C252.7,774.7 253.0,777.3 252.7,777.6C252.5,777.9 251.6,775.7 250.9,772.8Z M402.4,775.2C401.8,774.8 401.1,773.8 400.7,773.0C400.3,772.2 399.2,770.4 398.3,769.0C396.7,766.8 396.7,766.6 398.2,767.8C399.6,768.9 404.4,776.0 403.7,776.0C403.6,776.0 403.0,775.6 402.4,775.2Z M803.0,767.2C807.6,760.5 810.0,758.0 810.0,759.8C810.0,760.4 809.4,761.3 808.7,761.7C808.0,762.1 805.9,764.6 804.2,767.2C802.4,769.8 800.4,772.2 799.8,772.6C799.2,773.0 800.6,770.6 803.0,767.2Z M813.7,753.1C815.8,750.3 818.1,747.9 818.7,747.6C819.4,747.3 818.0,749.5 815.7,752.5C813.4,755.4 811.1,757.9 810.7,757.9C810.2,758.0 811.6,755.8 813.7,753.1Z M950.2,748.6C950.1,747.1 949.3,743.1 948.4,739.8C947.6,736.5 947.1,733.6 947.4,733.3C948.4,732.3 951.1,744.1 950.7,747.7C950.4,750.6 950.3,750.8 950.2,748.6Z M436.3,747.8C435.2,745.9 432.0,739.6 432.0,739.2C432.0,738.0 434.9,742.0 435.5,744.0C435.9,745.4 436.7,747.1 437.2,747.8C437.8,748.4 438.0,749.0 437.7,749.0C437.4,749.0 436.8,748.4 436.3,747.8Z M372.0,738.2C366.8,732.9 363.4,729.2 364.5,729.8C367.0,731.1 382.6,746.8 381.9,747.3C381.7,747.5 377.2,743.4 372.0,738.2Z M820.0,745.7C820.0,745.0 820.8,744.2 828.1,737.5C832.0,733.9 831.8,735.1 827.9,739.0C822.9,743.9 820.0,746.3 820.0,745.7Z M429.7,734.8C428.7,733.1 428.1,731.6 428.3,731.3C428.9,730.7 432.2,736.0 431.8,737.0C431.6,737.5 430.7,736.6 429.7,734.8Z M775.0,735.5C775.1,733.9 778.9,727.3 779.0,728.7C779.0,729.4 778.1,731.4 777.0,733.2C775.9,735.0 775.0,736.0 775.0,735.5Z M253.0,733.2C253.0,731.4 256.3,724.7 258.2,722.6C260.6,719.9 260.4,721.9 258.0,725.0C256.9,726.4 256.0,728.2 256.0,729.0C255.9,730.8 253.0,734.9 253.0,733.2Z M836.0,730.7C836.0,729.7 846.1,719.7 846.5,720.2C846.8,720.4 844.5,723.0 841.5,725.9C838.5,728.8 836.0,731.0 836.0,730.7Z M357.7,724.4C355.6,722.4 354.1,720.5 354.3,720.3C354.5,720.1 356.5,721.8 358.7,724.0C361.0,726.2 362.5,728.0 362.1,728.0C361.7,728.0 359.8,726.4 357.7,724.4Z M940.1,721.0C938.4,718.8 937.3,717.0 937.8,717.0C938.5,717.0 941.4,720.5 943.4,723.8C944.9,726.3 943.3,724.9 940.1,721.0Z M422.6,717.4C421.7,715.4 421.1,713.5 421.4,713.3C421.6,713.0 422.6,714.5 423.5,716.5C424.5,718.4 425.1,720.3 424.8,720.5C424.6,720.8 423.6,719.3 422.6,717.4Z M263.0,716.5C266.5,712.9 267.6,712.1 266.4,714.2C265.1,716.5 261.5,720.0 260.6,720.0C260.0,720.0 261.1,718.4 263.0,716.5Z M848.0,719.1C848.0,718.5 848.9,717.6 849.9,717.0C851.0,716.5 852.6,715.3 853.5,714.4C854.4,713.5 855.3,713.0 855.6,713.3C855.9,713.5 854.3,715.2 852.0,717.0C849.8,718.7 848.0,719.7 848.0,719.1Z M857.4,712.2C857.8,711.5 860.0,710.0 862.3,708.9C867.2,706.4 866.2,707.7 860.6,711.0C858.4,712.3 857.0,712.8 857.4,712.2Z M419.0,709.0C418.3,707.3 418.0,705.7 418.2,705.4C418.5,705.2 419.3,706.3 420.0,708.0C420.7,709.7 421.0,711.3 420.8,711.6C420.5,711.8 419.7,710.7 419.0,709.0Z M921.5,707.1C918.2,705.6 912.8,703.5 909.6,702.5C906.3,701.5 904.2,700.4 904.8,700.2C906.0,699.8 916.6,703.4 921.0,705.7C922.4,706.4 924.0,707.0 924.6,707.0C925.2,707.0 926.3,707.7 927.0,708.5C928.6,710.4 928.7,710.4 921.5,707.1Z M281.0,705.0C282.9,704.0 285.2,703.1 286.0,703.0C288.3,703.0 284.0,705.6 280.5,706.4C277.5,707.0 277.5,707.0 281.0,705.0Z M330.0,705.0C328.6,703.9 328.0,703.0 328.6,703.0C329.3,703.0 330.8,703.9 332.1,705.0C335.2,707.5 333.3,707.6 330.0,705.0Z M291.5,701.5C293.1,700.7 295.2,700.1 296.0,700.1C296.8,700.1 296.0,700.7 294.1,701.5C289.9,703.4 287.5,703.3 291.5,701.5Z M301.0,698.6C305.5,696.7 313.7,696.7 317.5,698.5L320.5,700.0L317.5,699.4C313.4,698.5 305.2,698.5 301.0,699.3L297.5,700.0L301.0,698.6Z M882.3,699.0C885.4,697.0 894.1,696.7 899.0,698.4C902.6,699.7 902.8,699.8 900.0,699.3C895.6,698.4 887.5,698.5 883.5,699.4C881.0,700.0 880.8,699.9 882.3,699.0Z M789.1,698.0C789.1,697.2 790.0,694.5 791.0,692.0C792.0,689.5 792.9,688.2 792.9,689.0C792.9,689.8 792.0,692.5 791.0,695.0C790.0,697.5 789.1,698.8 789.1,698.0Z M412.1,685.3C411.4,683.0 411.0,680.6 411.3,679.9C411.6,679.1 411.9,679.5 411.9,680.8C412.0,682.1 412.5,684.0 413.1,685.1C413.7,686.2 414.0,687.6 413.8,688.2C413.6,688.8 412.8,687.5 412.1,685.3Z M409.8,676.0C409.4,674.6 408.9,672.4 408.5,671.0C408.1,669.4 408.5,669.8 409.5,671.9C410.4,673.8 410.9,676.1 410.7,676.9C410.5,677.9 410.2,677.6 409.8,676.0Z M797.0,669.0C797.4,666.8 798.0,664.7 798.3,664.3C799.2,663.5 797.9,671.4 797.0,672.3C796.6,672.8 796.6,671.3 797.0,669.0Z M405.7,659.0C404.4,650.9 404.0,647.5 404.4,648.5C406.1,653.1 407.1,658.1 406.8,660.5C406.5,663.1 406.4,662.9 405.7,659.0Z M799.1,657.5C799.1,657.0 800.0,653.1 801.0,649.0C802.6,642.9 802.8,642.4 802.4,646.3C801.9,650.6 799.2,659.9 799.1,657.5Z M351.7,653.6C351.3,652.7 351.7,652.4 352.8,652.7C353.8,652.9 355.5,652.2 356.8,651.0C358.0,649.9 359.0,649.3 359.0,649.7C359.0,650.8 354.4,655.0 353.2,655.0C352.7,655.0 352.0,654.4 351.7,653.6Z M346.8,649.7C345.3,648.5 342.8,646.5 341.3,645.3C339.8,644.1 337.6,642.3 336.5,641.3C335.4,640.3 332.1,637.8 329.2,635.6C326.4,633.5 324.0,631.6 324.0,631.4C324.0,630.8 328.8,633.9 332.5,636.8C342.9,645.2 350.7,651.9 350.0,652.0C349.7,652.0 348.3,651.0 346.8,649.7Z M359.0,647.0C359.1,645.2 362.8,637.1 362.9,638.6C363.0,639.3 362.1,641.7 361.0,644.1C359.9,646.5 359.0,647.8 359.0,647.0Z M402.1,637.7C401.4,633.6 401.0,629.6 401.2,628.9C401.4,628.2 402.2,631.0 402.9,635.2C403.7,639.3 404.1,643.3 403.8,644.0C403.6,644.7 402.8,641.8 402.1,637.7Z M881.0,641.5C885.7,637.6 886.2,637.4 885.4,639.5C885.0,640.3 884.2,641.0 883.5,641.0C882.9,641.0 881.5,641.9 880.5,643.0C879.5,644.1 878.3,645.0 877.8,645.0C877.2,645.0 878.7,643.4 881.0,641.5Z M862.6,634.0C861.6,631.2 861.0,628.7 861.3,628.4C862.0,627.7 865.3,636.6 864.8,638.0C864.6,638.6 863.6,636.8 862.6,634.0Z M803.2,636.5C803.2,635.4 803.8,631.4 804.6,627.5L806.0,620.5L805.5,626.5C804.9,632.6 803.2,640.3 803.2,636.5Z M887.0,637.4C887.0,636.7 888.6,635.1 894.0,631.0C896.4,629.1 899.3,626.7 900.3,625.7C901.3,624.7 902.5,624.1 902.8,624.5C903.2,624.9 902.1,626.1 900.5,627.3C898.8,628.5 895.1,631.4 892.3,633.8C889.4,636.1 887.0,637.8 887.0,637.4Z M363.1,634.0C363.1,633.2 363.7,630.2 364.5,627.5C365.2,624.8 365.9,623.4 365.9,624.5C365.9,625.6 365.3,628.5 364.6,631.0C363.8,633.5 363.1,634.8 363.1,634.0Z M320.5,629.9C319.9,629.4 317.4,627.3 314.7,625.3C312.1,623.3 310.2,621.4 310.5,621.1C310.9,620.8 311.4,621.0 311.8,621.6C312.2,622.1 314.9,624.3 317.8,626.4C320.6,628.5 323.0,630.4 323.0,630.6C323.0,631.3 321.5,630.9 320.5,629.9Z M340.7,626.3C339.8,625.3 338.4,622.9 337.6,620.9C336.8,619.0 335.3,616.6 334.2,615.7C333.1,614.7 331.9,612.6 331.5,611.2C330.7,608.0 328.2,605.0 326.3,605.0C325.6,605.0 325.0,604.5 325.0,604.0C325.0,603.5 324.3,603.0 323.4,603.0C322.5,603.0 320.1,601.6 318.0,600.0C315.9,598.4 313.8,597.0 313.3,597.0C311.9,597.0 301.0,585.9 301.0,584.5C301.0,584.2 299.5,581.8 297.8,579.2C293.0,572.1 292.1,570.7 291.1,568.3C290.5,567.2 289.6,565.9 289.0,565.5C288.4,565.1 287.4,563.8 286.9,562.7C286.4,561.5 285.0,558.9 283.8,557.0C282.6,555.1 279.7,549.7 277.2,545.0C274.8,540.3 272.3,536.0 271.8,535.3C270.1,533.2 268.1,522.7 268.0,515.7C268.0,510.5 268.6,507.7 270.5,503.6C273.4,497.4 279.8,490.8 283.7,489.8C292.5,487.7 295.7,486.5 297.6,484.9C298.7,483.8 300.9,483.0 302.4,483.0C305.0,483.0 314.1,487.6 314.8,489.2C315.0,489.6 315.7,490.0 316.3,490.0C317.5,490.1 323.8,497.7 325.3,500.9C325.7,501.8 327.1,504.3 328.5,506.5C329.8,508.7 331.9,512.5 333.1,515.0C334.2,517.5 336.0,521.1 337.1,523.1C338.1,525.1 339.0,527.5 339.0,528.4C339.0,529.2 339.6,531.4 340.4,533.2C342.4,538.1 345.6,549.5 347.4,558.0C349.3,567.2 351.5,603.2 350.7,612.9C349.8,624.8 345.1,631.1 340.7,626.3Z M859.2,623.4C858.6,621.1 858.0,618.2 858.1,616.9C858.1,615.3 858.7,616.2 859.6,619.3C860.4,622.0 861.0,624.9 860.8,625.8C860.6,626.8 859.9,625.6 859.2,623.4Z M906.5,621.4C908.1,620.1 914.0,615.7 919.5,611.8C925.0,607.9 929.6,604.3 929.8,603.8C930.0,603.4 930.8,603.0 931.6,603.0C932.4,603.0 933.3,602.3 933.6,601.5C934.0,600.7 934.8,600.0 935.6,600.0C936.4,600.0 937.0,599.6 937.0,599.2C937.0,598.7 939.1,596.8 941.8,594.9C947.5,590.8 966.1,572.4 971.5,565.5C973.6,562.8 975.9,560.0 976.4,559.5C977.0,558.9 978.0,557.7 978.5,556.9C979.0,556.0 981.5,552.2 984.0,548.4C986.5,544.6 989.1,540.6 989.8,539.5C992.4,535.3 1001.0,517.0 1002.6,512.4C1004.4,506.8 1006.0,504.6 1006.0,507.6C1006.0,508.7 1005.6,510.0 1005.2,510.5C1004.7,511.1 1003.7,513.1 1003.0,515.0C1000.1,523.1 987.5,547.2 985.9,547.8C985.4,548.0 985.0,548.6 985.0,549.1C985.0,550.3 977.0,561.4 975.8,561.8C975.4,562.0 975.0,562.6 975.0,563.1C975.0,564.8 955.2,585.1 945.7,593.2C937.9,599.9 936.3,601.2 933.2,603.1C931.5,604.2 930.0,605.6 930.0,606.1C930.0,606.6 929.5,607.0 929.0,607.0C928.4,607.0 927.4,607.5 926.7,608.0C926.0,608.6 923.7,610.4 921.5,612.0C919.3,613.6 917.0,615.4 916.3,616.0C915.6,616.5 914.8,617.0 914.5,617.0C914.1,617.0 911.9,618.6 909.6,620.5C907.2,622.4 904.9,624.0 904.4,624.0C903.9,623.9 904.9,622.8 906.5,621.4Z M399.6,616.9C398.8,609.1 398.9,594.9 399.8,589.0C400.2,586.4 400.6,592.7 400.6,603.8C400.6,614.3 400.5,623.0 400.5,623.0C400.4,623.0 400.0,620.2 399.6,616.9Z M303.0,616.5C300.0,614.0 297.3,611.5 297.1,610.8C296.7,609.5 303.1,614.8 303.8,616.2C304.0,616.7 304.8,617.0 305.5,617.0C306.3,617.0 307.4,617.9 308.0,619.0C308.6,620.1 308.9,621.0 308.8,621.0C308.6,620.9 306.0,618.9 303.0,616.5Z M366.8,614.0C367.7,604.4 367.7,578.0 366.8,567.0L366.1,558.5L367.5,566.0C369.5,576.0 369.5,604.0 367.5,614.0L366.1,621.5L366.8,614.0Z M855.7,605.7C854.8,601.4 854.0,596.3 854.1,594.2C854.1,591.7 854.8,593.5 856.1,600.0C858.5,611.7 858.2,616.5 855.7,605.7Z M806.4,603.0C806.4,597.8 806.5,595.6 806.7,598.2C806.9,600.9 806.9,605.1 806.7,607.8C806.5,610.4 806.4,608.2 806.4,603.0Z M287.7,602.6C275.3,589.6 271.3,584.4 274.4,585.6C275.3,585.9 276.2,587.0 276.5,587.9C276.9,589.4 282.8,596.0 293.4,607.0C295.1,608.6 296.0,610.0 295.4,609.9C294.9,609.8 291.4,606.6 287.7,602.6Z M880.9,607.4C878.5,606.7 877.9,602.2 879.5,597.6C880.6,594.5 880.7,591.9 879.9,585.3C879.2,579.5 879.2,572.9 879.9,564.2C882.5,532.9 883.0,527.2 883.9,522.5C884.4,519.8 885.4,514.4 885.9,510.5C889.1,489.4 893.0,472.8 898.1,458.0C899.4,454.2 905.6,440.4 907.1,438.0C907.6,437.2 908.4,435.6 909.0,434.5C914.5,423.0 925.1,415.1 936.3,414.3C942.4,413.8 951.0,415.9 960.5,420.1C964.6,421.9 973.7,431.5 975.6,435.9C982.7,452.7 983.7,465.4 979.6,485.0C978.2,491.3 976.6,498.1 975.9,500.0C971.6,512.3 970.6,515.0 968.8,519.0C966.5,524.2 954.8,542.1 952.5,544.0C951.7,544.7 951.0,545.8 951.0,546.5C951.0,547.3 950.7,548.0 950.2,548.2C949.8,548.4 947.9,550.5 946.0,553.0C944.1,555.5 938.0,561.9 932.5,567.2C926.9,572.5 918.6,580.7 914.0,585.5C898.2,601.6 886.9,609.1 880.9,607.4Z M852.6,582.9C851.8,574.9 852.0,547.9 852.9,541.5C853.3,538.7 853.6,548.0 853.7,562.8C853.7,577.2 853.7,589.0 853.5,589.0C853.4,589.0 853.0,586.2 852.6,582.9Z M804.1,579.5C803.5,575.3 803.1,568.2 803.2,563.7C803.3,558.4 803.5,557.3 803.7,560.5C803.9,563.2 804.5,570.2 805.0,575.9C805.6,581.6 805.8,586.5 805.6,586.7C805.4,586.9 804.7,583.7 804.1,579.5Z M271.5,583.2C270.9,582.8 270.0,581.6 269.3,580.5C265.0,573.4 263.0,569.6 263.4,569.3C263.7,569.0 264.6,570.3 265.6,572.2C266.5,574.0 267.6,575.7 267.9,576.0C268.8,576.6 273.3,584.0 272.8,584.0C272.6,584.0 272.1,583.6 271.5,583.2Z M401.7,570.5C402.0,563.9 402.6,554.7 403.0,550.0C403.7,543.6 403.7,545.0 403.3,556.0C403.0,564.0 402.4,573.2 402.0,576.5C401.4,580.7 401.3,579.0 401.7,570.5Z M259.0,561.5C257.2,557.9 255.9,554.8 256.2,554.4C256.6,554.1 258.2,556.9 260.0,560.5C261.7,564.2 262.9,567.4 262.7,567.6C262.5,567.8 260.8,565.1 259.0,561.5Z M364.1,547.2C363.4,542.6 363.0,538.7 363.2,538.5C363.9,537.7 366.3,551.3 365.8,553.5C365.6,554.6 364.8,551.8 364.1,547.2Z M254.1,549.7C252.5,545.6 252.8,544.0 254.6,547.3C255.4,548.9 255.9,550.7 255.7,551.3C255.4,552.0 254.7,551.2 254.1,549.7Z M801.2,536.5C799.2,519.3 798.7,513.5 799.4,514.1C800.2,514.8 803.2,542.6 802.8,544.8C802.6,545.7 801.9,542.0 801.2,536.5Z M250.6,537.9C249.7,535.0 249.1,530.8 249.1,528.6C249.2,526.3 249.4,525.4 249.6,526.5C249.9,527.6 250.8,531.6 251.6,535.3C253.5,543.5 252.8,545.3 250.6,537.9Z M360.8,530.9C358.4,523.3 358.7,520.1 361.1,527.0C362.2,530.0 362.9,533.4 362.8,534.5C362.6,535.7 361.8,534.2 360.8,530.9Z M404.2,530.5C404.2,527.2 404.8,521.1 405.6,517.0L407.0,509.5L406.3,516.0C406.0,519.6 405.4,525.6 405.0,529.5L404.3,536.5L404.2,530.5Z M854.1,530.7C854.0,525.0 857.4,504.1 857.7,508.5C857.9,510.1 857.1,516.9 856.1,523.5C854.7,532.4 854.2,534.3 854.1,530.7Z M358.1,519.5C358.1,518.3 357.5,516.9 356.9,516.3C356.3,515.7 356.0,514.6 356.3,513.8C356.9,512.0 359.2,517.9 358.7,519.9C358.4,521.0 358.2,520.9 358.1,519.5Z M353.7,506.8C352.7,504.6 352.1,502.6 352.3,502.4C352.5,502.2 353.5,503.8 354.5,506.0C355.5,508.2 356.1,510.2 355.9,510.5C355.6,510.7 354.6,509.1 353.7,506.8Z M249.1,507.4C249.0,505.7 249.5,502.8 250.1,500.9C251.5,496.8 253.6,494.2 252.5,498.0C252.2,499.4 251.2,502.8 250.5,505.5C249.4,509.7 249.2,510.0 249.1,507.4Z M797.1,501.9C796.4,498.5 796.1,495.6 796.3,495.3C796.8,494.9 797.3,496.9 798.6,504.2C799.6,510.5 798.4,508.5 797.1,501.9Z M407.1,505.0C407.0,503.6 407.9,499.6 408.9,496.0C410.0,492.4 410.9,490.6 410.9,492.0C410.9,493.4 410.1,497.4 409.0,501.0C408.0,504.7 407.1,506.4 407.1,505.0Z M1006.6,501.5C1006.9,499.3 1007.6,496.8 1008.1,496.0C1009.6,493.4 1009.1,499.2 1007.5,502.5L1006.0,505.5L1006.6,501.5Z M858.1,501.5C858.1,499.9 858.7,496.2 859.4,493.5C860.5,489.6 860.8,489.1 860.8,491.5C860.8,493.1 860.2,496.8 859.5,499.5C858.5,503.6 858.2,503.9 858.1,501.5Z M345.5,490.2C343.8,487.6 342.3,485.1 342.1,484.5C341.9,483.9 341.1,482.7 340.2,481.8C339.3,480.7 339.1,480.0 339.8,480.0C340.4,480.0 341.7,481.5 342.6,483.2C343.5,485.0 344.6,486.7 344.9,487.0C346.0,487.9 349.2,494.1 348.8,494.5C348.6,494.7 347.1,492.8 345.5,490.2Z M1009.1,491.5C1009.0,490.4 1009.7,486.0 1010.5,481.7C1012.2,472.8 1012.4,459.7 1010.9,453.0C1010.4,450.5 1009.8,446.9 1009.5,445.0L1009.0,441.5L1010.7,445.0C1013.2,449.9 1013.2,482.1 1010.8,489.0C1009.9,491.5 1009.2,492.6 1009.1,491.5Z M794.2,487.6C793.5,486.1 793.0,483.9 793.1,482.7C793.1,481.1 793.6,481.7 794.6,484.4C796.3,489.1 796.0,491.5 794.2,487.6Z M411.6,485.1C411.8,482.7 412.5,480.0 413.1,479.1C413.9,477.8 414.0,478.0 413.6,480.0C413.3,481.4 412.6,484.1 412.1,486.0C411.0,489.5 411.0,489.5 411.6,485.1Z M256.6,487.0C258.1,483.9 263.5,477.4 267.9,473.2C272.9,468.6 283.8,461.5 284.6,462.3C284.9,462.6 284.1,463.4 282.8,464.1C281.6,464.9 279.6,466.0 278.5,466.7C277.4,467.4 275.8,468.2 275.0,468.6C273.2,469.5 263.7,479.0 259.1,484.5C257.3,486.7 256.2,487.8 256.6,487.0Z M861.2,486.0C861.1,482.9 864.8,471.7 864.9,474.5C864.9,475.6 864.1,479.2 863.1,482.5C861.9,486.1 861.2,487.5 861.2,486.0Z M792.1,478.4C792.0,477.3 791.6,476.0 791.1,475.4C790.1,474.4 788.6,468.0 789.3,468.0C790.2,468.0 793.2,478.0 792.7,479.3C792.4,479.9 792.1,479.6 792.1,478.4Z M335.1,475.5C333.4,473.6 332.2,472.0 332.6,472.0C333.5,472.0 339.3,478.0 338.8,478.5C338.5,478.8 336.9,477.4 335.1,475.5Z M414.6,473.1C415.3,469.2 417.9,462.7 417.9,465.0C417.9,465.8 417.0,468.8 415.9,471.5C414.4,475.4 414.2,475.7 414.6,473.1Z M865.1,471.0C865.0,469.0 871.8,449.3 873.9,445.2C874.4,444.3 876.0,441.0 877.5,438.0C880.8,431.2 886.1,421.7 886.9,421.0C887.3,420.7 888.4,419.2 889.4,417.7C890.3,416.1 891.4,415.0 891.7,415.3C891.9,415.6 890.7,418.0 888.8,420.7C882.6,429.8 872.0,450.8 872.0,454.0C872.0,454.6 871.1,457.0 870.0,459.2C868.9,461.5 868.0,463.9 868.0,464.6C868.0,465.2 867.3,467.3 866.5,469.1C865.7,471.0 865.1,471.8 865.1,471.0Z M326.5,467.9C324.3,466.3 322.0,464.6 321.4,464.2C320.4,463.3 312.5,460.6 308.5,459.7C306.9,459.3 307.0,459.2 309.0,459.1C312.0,459.0 321.8,462.6 324.1,464.6C324.9,465.4 325.9,466.0 326.3,466.0C326.6,466.0 328.1,467.1 329.6,468.5C333.2,471.9 331.4,471.5 326.5,467.9Z M787.1,463.2C786.3,461.4 786.0,459.7 786.3,459.4C787.1,458.5 789.2,462.9 788.8,464.8C788.6,466.0 788.0,465.5 787.1,463.2Z M289.0,460.5C290.4,459.7 292.9,459.1 294.5,459.1C297.2,459.1 297.0,459.3 293.0,460.6C287.3,462.3 285.8,462.3 289.0,460.5Z M418.0,461.3C418.0,459.9 422.2,452.1 423.6,451.0C425.6,449.3 425.4,450.7 423.1,453.9C422.0,455.4 420.8,457.8 420.5,459.3C419.9,461.7 418.0,463.2 418.0,461.3Z M784.3,455.8C783.0,454.1 779.0,446.3 779.0,445.3C779.0,444.9 780.6,447.2 782.5,450.5C785.7,455.8 786.7,458.9 784.3,455.8Z M425.0,447.9C425.0,447.6 425.9,445.5 427.0,443.2C428.1,441.0 429.0,438.5 429.0,437.8C429.1,436.3 432.0,432.1 432.0,433.6C432.0,434.2 431.6,435.0 431.2,435.6C430.8,436.1 429.8,438.3 429.1,440.5C427.9,444.1 425.0,449.3 425.0,447.9Z M777.3,441.7C775.7,438.5 775.0,434.9 776.1,435.6C776.6,435.9 777.0,437.1 777.0,438.4C777.0,439.6 777.5,441.1 778.2,441.8C778.8,442.4 779.1,443.2 778.9,443.5C778.6,443.8 777.8,443.0 777.3,441.7Z M1007.1,437.5C1004.3,429.8 996.7,418.2 989.0,410.0C987.6,408.6 983.6,405.2 980.0,402.4C960.2,387.3 937.5,384.2 917.5,393.9C911.4,396.9 907.6,399.7 901.2,406.0C896.6,410.5 892.7,414.0 892.5,413.8C891.9,413.3 903.5,401.0 904.5,401.0C904.9,401.0 905.9,400.1 906.8,399.1C909.2,396.3 919.0,391.3 926.2,389.0C934.5,386.4 946.7,386.4 955.8,388.9C963.5,391.0 974.4,396.1 977.6,399.1C978.7,400.1 979.9,401.0 980.3,401.0C980.7,401.0 981.8,401.8 982.9,402.8C983.9,403.7 986.2,405.8 988.0,407.4C991.1,410.3 1000.1,421.3 1002.8,425.5C1005.4,429.7 1009.1,438.5 1008.8,439.8C1008.6,440.6 1007.9,439.6 1007.1,437.5Z M760.3,401.2C757.7,395.6 757.7,395.3 759.4,397.7C761.1,400.0 763.2,405.0 762.5,405.0C762.2,405.0 761.3,403.3 760.3,401.2Z M469.0,353.1C469.0,352.6 469.3,352.0 469.8,351.8C471.3,351.2 483.0,334.5 483.0,333.0C483.0,332.5 483.3,332.0 483.8,332.0C484.2,332.0 485.6,330.0 486.9,327.5C488.2,325.0 489.5,323.2 489.7,323.4C490.1,323.8 488.7,326.6 483.4,335.7C482.3,337.5 481.2,339.0 480.8,339.0C480.3,339.0 480.0,339.6 480.0,340.4C480.0,341.2 479.7,342.0 479.2,342.2C478.2,342.6 473.0,349.7 473.0,350.7C473.0,351.1 472.1,352.1 471.0,352.8C469.9,353.5 469.0,353.6 469.0,353.1Z M732.2,349.3C731.6,349.1 731.0,348.4 731.0,347.8C731.0,347.3 729.4,344.9 727.5,342.6C725.6,340.2 724.0,338.0 724.0,337.7C724.0,337.4 722.6,335.0 720.9,332.5C718.0,328.2 713.0,319.1 713.0,318.0C713.0,316.9 715.1,320.0 718.1,325.5C719.9,328.8 722.0,332.1 722.7,332.8C723.4,333.5 724.0,334.5 724.0,335.0C724.0,335.5 725.5,337.8 727.4,340.3C731.2,345.3 734.4,350.0 733.9,349.9C733.7,349.9 732.9,349.6 732.2,349.3Z M490.0,321.7C490.0,320.5 496.2,309.9 496.7,310.3C496.9,310.6 495.9,312.9 494.5,315.6C491.9,320.5 490.0,323.1 490.0,321.7Z M708.4,309.5C706.3,305.3 704.2,301.6 703.8,301.4C703.4,301.1 703.0,300.1 703.0,299.2C703.0,298.2 703.3,298.0 703.9,298.6C705.4,300.1 713.2,316.1 712.7,316.6C712.5,316.8 710.6,313.6 708.4,309.5Z M500.0,302.6C500.0,301.4 506.1,290.8 506.6,291.3C507.0,291.7 504.1,297.6 501.7,301.0C500.8,302.3 500.0,303.1 500.0,302.6Z M699.1,291.7C695.8,285.9 695.2,284.0 697.3,286.2C698.9,287.8 703.1,296.2 702.6,296.8C702.4,297.0 700.8,294.7 699.1,291.7Z M507.0,289.0C507.0,287.3 510.9,281.9 511.0,283.5C511.0,284.1 510.1,285.9 509.0,287.5C507.9,289.1 507.0,289.8 507.0,289.0Z M511.0,281.4C511.0,281.1 511.6,279.6 512.4,278.2C513.1,276.7 514.4,273.9 515.3,272.0C516.1,270.1 517.7,266.4 518.9,263.9C520.1,261.4 521.0,258.7 521.0,257.9C521.1,256.3 524.0,252.1 524.0,253.7C524.0,255.7 512.4,282.0 511.5,282.0C511.2,282.0 511.0,281.7 511.0,281.4Z M689.6,272.6C684.3,261.0 681.9,254.8 682.4,253.7C682.7,252.9 682.9,253.0 682.9,253.9C683.0,255.3 687.1,264.5 691.3,272.7C692.4,275.0 693.1,277.2 692.8,277.6C692.4,277.9 691.0,275.7 689.6,272.6Z M524.1,251.0C524.1,250.2 524.9,247.7 525.9,245.5C527.2,242.8 527.9,242.2 527.9,243.5C527.9,244.6 527.1,247.1 526.0,249.0C524.9,250.9 524.1,251.8 524.1,251.0Z" fill="#651D99" fill-rule="evenodd"/>
  <path d="M656.0,1017.9C650.8,1017.5 643.1,1016.4 639.0,1015.5C634.9,1014.6 627.9,1013.3 623.5,1012.6C619.1,1011.9 614.8,1011.1 614.0,1010.7C613.2,1010.4 607.5,1009.6 601.5,1009.0C595.5,1008.4 589.8,1007.6 589.0,1007.3C587.6,1006.7 582.1,1005.6 566.5,1002.9C562.6,1002.2 559.3,1001.3 559.0,1000.9C558.7,1000.6 556.0,999.9 553.0,999.5C550.0,999.1 546.8,998.4 545.8,997.9C544.8,997.4 543.2,996.6 542.2,996.1C541.2,995.6 538.1,994.9 535.2,994.5C532.3,994.1 530.0,993.5 530.0,993.0C530.0,992.6 528.1,992.0 525.8,991.6C523.5,991.2 521.1,990.5 520.5,990.1C520.0,989.6 517.9,989.0 515.9,988.7C513.9,988.4 510.2,987.2 507.7,986.1C505.2,984.9 502.4,984.0 501.6,984.0C500.7,984.0 500.0,983.6 500.0,983.2C500.0,982.8 498.8,981.9 497.2,981.3C494.2,979.9 490.8,977.9 490.0,976.8C489.7,976.5 488.2,975.8 486.7,975.5C485.2,975.1 483.4,974.0 482.7,973.1C482.1,972.1 480.8,971.0 480.0,970.6C475.3,968.4 470.0,963.9 470.0,962.2C470.0,961.7 469.1,960.5 468.0,959.5C466.9,958.5 466.0,956.9 466.0,955.8C466.0,954.8 465.6,954.0 465.0,954.0C462.8,954.0 464.2,951.4 467.5,949.2C471.7,946.5 471.8,946.5 475.0,949.0C476.4,950.1 478.3,951.0 479.3,951.0C482.2,951.0 493.0,954.5 498.1,957.0C499.0,957.5 502.2,958.1 505.3,958.5C508.5,958.9 511.0,959.6 511.0,960.0C511.0,960.5 513.2,961.1 516.0,961.5C518.8,961.9 521.0,962.5 521.0,963.0C521.0,963.4 524.2,964.1 528.0,964.5C531.9,964.9 535.3,965.6 535.6,966.1C536.3,967.3 557.7,967.2 560.0,966.0C561.1,965.4 573.7,964.7 589.2,964.4C604.2,964.1 617.4,963.4 618.5,962.9C621.2,961.7 644.5,958.0 649.5,958.0C651.7,958.0 656.0,957.3 659.0,956.4C662.0,955.5 666.1,954.5 668.0,954.0C673.9,952.6 679.5,950.3 689.2,945.2C702.5,938.3 712.4,932.8 713.0,932.0C713.3,931.7 715.8,930.1 718.5,928.5C721.2,926.9 724.0,925.1 724.5,924.5C725.0,923.9 727.4,922.1 729.8,920.6C732.1,919.0 734.0,917.3 734.0,916.9C734.0,916.4 734.7,916.0 735.5,916.0C736.4,916.0 737.3,915.3 737.6,914.5C738.0,913.7 738.8,913.0 739.6,913.0C740.4,913.0 741.0,912.6 741.0,912.1C741.0,911.6 745.8,907.0 751.8,901.9C769.1,886.8 790.0,865.3 798.3,854.0C802.6,848.2 806.9,842.5 808.0,841.4C809.1,840.2 810.0,838.9 810.0,838.6C810.0,838.2 810.4,837.4 811.0,836.7C815.6,831.0 817.0,829.1 817.0,828.2C817.0,827.7 817.7,827.0 818.5,826.6C819.3,826.3 820.0,825.4 820.0,824.6C820.0,823.8 820.3,823.0 820.8,822.8C821.2,822.6 824.7,818.2 828.5,813.0C832.3,807.8 835.8,803.4 836.2,803.2C836.7,803.0 837.0,802.4 837.0,801.8C837.0,800.9 838.4,799.0 843.0,793.3C843.6,792.6 844.0,791.5 844.0,790.7C844.0,789.9 844.9,788.5 846.0,787.5C847.1,786.5 848.0,784.9 848.0,783.9C848.0,783.0 848.3,782.0 848.8,781.8C849.2,781.6 850.8,779.5 852.4,777.0C854.0,774.5 855.9,772.1 856.7,771.7C857.4,771.3 858.0,770.5 858.0,770.0C858.0,768.9 861.7,765.0 862.7,765.0C863.0,765.0 864.2,764.2 865.3,763.3C868.1,760.7 878.6,760.8 882.2,763.5C883.7,764.6 885.0,766.0 885.0,766.7C885.0,767.3 885.5,768.0 886.1,768.2C886.7,768.4 887.5,770.8 887.7,773.5C888.3,779.8 885.7,786.0 878.5,795.4C876.9,797.6 874.7,800.9 873.7,802.9C870.9,808.2 856.9,828.7 855.3,829.9C854.3,830.7 852.7,833.3 849.8,839.0C848.5,841.5 846.9,844.1 846.2,844.8C845.6,845.5 845.0,846.5 845.0,846.9C845.0,847.3 843.2,850.1 841.0,853.0C836.2,859.4 831.6,868.8 828.8,877.9C826.1,886.7 825.7,906.8 828.2,912.0C829.1,913.9 830.2,917.4 830.5,919.8C831.6,927.0 834.1,929.0 849.5,935.5C853.2,937.1 869.3,939.2 882.0,939.7C890.0,940.1 893.0,939.7 901.0,937.5C906.2,936.1 911.6,934.6 913.0,934.3C914.4,934.0 916.7,932.9 918.2,931.9C919.6,930.8 921.3,930.0 922.0,930.0C922.7,930.0 924.4,929.4 925.8,928.7C927.3,927.9 929.9,926.7 931.5,925.9C937.1,923.1 943.5,919.5 944.0,918.8C945.0,917.6 952.1,913.0 953.0,913.0C953.6,913.0 954.0,912.6 954.0,912.2C954.0,911.7 955.6,910.5 957.5,909.4C959.4,908.4 961.0,907.2 961.0,906.8C961.0,906.3 961.5,906.0 962.0,906.0C962.6,906.0 965.2,904.5 967.8,902.7C973.3,898.8 980.0,896.0 983.6,896.0C987.3,896.0 992.0,898.7 995.8,902.8C1001.6,909.4 999.7,919.1 990.7,927.4C989.1,928.8 987.5,930.0 987.0,930.0C986.5,930.0 985.7,930.6 985.3,931.3C984.5,932.6 974.4,940.0 973.5,940.0C973.2,940.0 970.7,941.6 968.0,943.5C965.3,945.4 962.6,947.0 962.0,947.0C961.5,947.0 961.0,947.4 961.0,947.8C961.0,948.3 959.4,949.5 957.5,950.6C955.6,951.6 954.0,952.8 954.0,953.2C954.0,953.7 953.3,954.0 952.5,954.0C951.7,954.0 951.0,954.4 951.0,954.9C951.0,955.4 949.5,956.5 947.8,957.4C944.6,959.0 941.6,960.8 939.6,962.3C935.8,965.0 930.9,967.9 929.1,968.5C927.9,968.8 927.0,969.6 927.0,970.1C927.0,970.6 926.3,971.0 925.4,971.0C924.5,971.0 922.6,971.8 921.2,972.8C919.7,973.9 917.6,975.0 916.5,975.3C915.4,975.6 912.0,976.8 909.0,978.0C900.9,981.2 892.9,984.0 889.5,984.9C887.9,985.4 884.7,986.4 882.5,987.2C880.3,988.1 874.0,989.5 868.5,990.4C863.0,991.4 856.0,992.7 853.0,993.5C850.0,994.2 843.0,995.8 837.5,997.0C832.0,998.2 825.0,999.8 822.0,1000.5C819.0,1001.2 813.8,1002.3 810.5,1002.9C807.2,1003.5 800.7,1004.9 796.0,1006.0C791.3,1007.1 783.7,1008.4 779.0,1008.9C774.3,1009.4 767.1,1010.5 763.0,1011.4C746.6,1014.8 738.7,1016.0 733.7,1016.0C730.8,1016.0 725.9,1016.4 722.9,1016.9C715.7,1018.1 668.0,1018.8 656.0,1017.9Z M612.5,779.1C604.1,778.0 594.3,772.6 586.9,765.0C580.3,758.3 578.3,754.8 574.3,744.0C570.7,734.2 569.7,728.7 569.2,716.2C568.7,702.9 570.5,688.9 574.0,679.5C575.0,676.8 576.0,673.6 576.3,672.5C577.3,668.9 579.5,663.6 581.8,659.5C586.2,651.6 588.2,648.5 589.1,648.2C589.6,648.0 590.0,647.2 590.0,646.4C590.0,645.6 590.5,645.0 591.0,645.0C591.6,645.0 592.3,644.3 592.7,643.4C593.3,641.7 602.5,632.3 608.0,627.7C619.3,618.2 637.7,611.1 651.0,611.0C657.4,611.0 672.0,614.6 672.0,616.2C672.0,616.6 672.8,617.0 673.8,617.0C675.9,617.0 689.0,630.4 689.0,632.6C689.0,633.4 689.4,634.0 689.8,634.0C691.0,634.0 698.8,650.0 700.7,656.3C703.1,664.4 703.6,687.7 701.5,697.0C699.9,704.3 699.4,706.0 696.4,714.5C694.9,718.5 686.2,736.6 684.8,738.5C684.4,739.0 682.9,740.9 681.5,742.6C680.1,744.4 679.0,746.1 679.0,746.5C679.0,747.4 661.5,765.0 660.6,765.0C660.3,765.0 658.2,766.3 655.9,768.0C644.0,776.6 626.8,781.0 612.5,779.1Z M335.0,589.2C335.0,588.3 321.8,579.0 320.6,579.0C317.2,579.0 291.0,552.9 291.0,549.5C291.0,549.1 290.1,547.5 289.0,545.9C287.2,543.5 286.9,541.3 286.7,531.6C286.5,520.3 286.5,520.1 289.3,517.2C290.8,515.6 294.5,513.5 297.4,512.5C302.6,510.7 303.0,510.7 307.5,512.4C310.0,513.4 313.2,515.2 314.5,516.4C317.2,518.7 321.0,527.7 321.0,531.5C321.0,534.1 324.1,544.1 326.6,549.7C327.4,551.4 328.0,553.2 328.0,553.8C328.0,554.3 328.9,556.7 330.0,559.1C331.1,561.5 332.0,565.3 332.0,567.6C332.0,569.9 333.2,574.8 334.6,578.6C338.3,588.4 338.6,590.0 336.6,590.0C335.7,590.0 335.0,589.6 335.0,589.2Z M640.6,570.6C637.7,567.7 634.8,563.9 634.1,562.1C633.3,560.4 632.4,559.0 631.9,559.0C631.4,559.0 631.0,558.4 631.0,557.6C631.0,556.4 627.9,550.6 623.8,544.2C622.9,542.7 621.4,540.3 620.6,538.8C617.4,533.1 615.8,530.4 613.5,526.5C612.3,524.3 610.2,520.5 609.0,518.0C607.8,515.5 606.2,512.3 605.5,510.9C604.2,508.6 601.7,501.1 598.5,490.0C597.7,487.5 596.8,481.2 596.4,476.0C596.1,470.8 595.6,465.4 595.4,464.0C595.3,462.6 595.0,447.8 595.0,431.0C594.7,390.0 595.8,378.4 605.0,322.5C606.1,315.2 606.9,306.2 606.8,299.5C606.7,291.4 607.1,287.3 608.3,284.1C609.6,280.9 610.0,276.5 610.0,267.3C610.0,260.0 610.6,252.3 611.4,248.7C612.2,245.3 613.2,241.2 613.5,239.7C614.0,237.1 614.4,236.9 616.8,237.5C618.3,237.8 620.4,238.7 621.6,239.5C623.8,240.9 631.0,254.7 631.0,257.7C631.0,258.7 631.7,260.4 632.5,261.4C633.3,262.5 634.0,264.1 634.0,264.9C634.0,265.8 634.7,267.8 635.5,269.3C636.3,270.8 637.4,273.5 637.9,275.3C638.4,277.1 640.0,281.6 641.5,285.5C643.0,289.4 645.2,297.3 646.4,303.1C647.7,308.9 649.0,314.1 649.3,314.7C649.7,315.3 650.6,318.2 651.4,321.1C653.2,327.4 656.5,338.6 658.5,345.0C659.2,347.5 661.7,354.7 664.0,361.0C666.3,367.3 668.5,374.1 669.0,376.0C669.4,377.9 670.3,380.9 670.8,382.5C674.1,392.1 676.0,398.7 676.0,400.4C676.0,402.3 677.1,406.4 681.1,420.1C682.1,423.7 683.0,427.5 683.0,428.5C683.0,429.5 683.6,432.6 684.4,435.4C687.2,445.3 688.9,455.7 690.1,470.8C691.8,492.5 689.6,514.0 683.9,530.0C682.1,535.0 674.5,550.4 670.4,557.5C668.5,560.8 666.4,564.6 665.7,566.0C662.8,572.0 656.8,576.0 650.8,576.0C646.1,576.0 645.5,575.7 640.6,570.6Z M910.6,554.1C910.3,553.6 910.7,551.1 911.4,548.4C913.7,540.6 914.5,530.7 914.5,512.0C914.6,482.4 917.6,472.6 928.2,467.7C933.2,465.4 938.6,465.6 944.6,468.4C953.4,472.5 957.3,481.4 955.0,491.8C954.3,494.9 953.2,498.6 952.5,500.0C951.8,501.4 949.5,506.0 947.4,510.3C945.3,514.5 942.3,519.5 940.8,521.3C936.9,525.8 930.0,535.9 930.0,537.0C930.0,537.6 929.6,538.0 929.2,538.0C928.7,538.0 927.6,539.6 926.7,541.5C925.8,543.4 924.6,545.0 924.0,545.0C923.5,545.0 923.0,545.4 923.0,546.0C923.0,547.5 918.8,552.0 917.4,552.0C916.8,552.0 916.0,552.7 915.6,553.5C915.0,555.1 911.5,555.6 910.6,554.1Z" fill="#AB6DD9" fill-rule="evenodd"/>
</svg>
